<?xml version="1.0" encoding="UTF-8" standalone="no"?><!DOCTYPE svg PUBLIC "-//W3C//DTD SVG 1.1//EN" "http://www.w3.org/Graphics/SVG/1.1/DTD/svg11.dtd"><svg width="100%" height="100%" viewBox="0 0 400 144" version="1.1" xmlns="http://www.w3.org/2000/svg" xmlns:xlink="http://www.w3.org/1999/xlink" xml:space="preserve" xmlns:serif="http://www.serif.com/" style="fill-rule:evenodd;clip-rule:evenodd;stroke-linejoin:round;stroke-miterlimit:2;"><g><g><path d="M73.556,65.8l-0.03,-0.034l-43.364,48.807c-2.905,3.269 -6.989,5.25 -11.354,5.508c-4.365,0.258 -8.654,-1.229 -11.922,-4.133c-0.268,-0.238 -0.535,-0.475 -0.802,-0.712c-3.079,-2.736 -4.946,-6.584 -5.189,-10.697c-0.243,-4.112 1.158,-8.153 3.894,-11.233c14.679,-16.521 41.464,-46.668 56.416,-63.497c2.871,-3.231 6.908,-5.19 11.222,-5.444c4.315,-0.255 8.555,1.215 11.786,4.085l0.567,0.504c0.579,0.515 1.112,1.062 1.6,1.638l19.29,21.547c-19.022,-1.869 -29.472,10.831 -32.114,13.661Z" style="fill:#fff;"/><path d="M108.643,56.418c-0,0 12.974,14.273 32.17,35.744c2.915,3.26 4.415,7.544 4.171,11.909c-0.244,4.366 -2.213,8.456 -5.473,11.371c-0.266,0.238 -0.533,0.476 -0.799,0.714c-6.395,5.718 -16.215,5.169 -21.933,-1.226l-40.174,-44.933c2.763,-2.985 13.194,-15.43 32.038,-13.579Z" style="fill:#fff;"/></g><g><path d="M222.751,72.42l0.033,-0.031l-48.384,-42.548c-3.241,-2.85 -5.216,-6.87 -5.493,-11.176c-0.276,-4.307 1.169,-8.546 4.019,-11.787c0.233,-0.265 0.466,-0.53 0.699,-0.794c2.684,-3.053 6.472,-4.915 10.529,-5.175c4.058,-0.261 8.052,1.101 11.106,3.786c16.378,14.403 46.264,40.684 62.947,55.354c3.203,2.817 5.156,6.791 5.429,11.048c0.273,4.257 -1.156,8.448 -3.973,11.651l-0.494,0.562c-0.505,0.574 -1.042,1.103 -1.608,1.587l-21.166,19.146c1.748,-18.782 -10.838,-29.031 -13.644,-31.623Z" style="fill:#fff;"/><path d="M232.186,106.998c-0,0 -14.02,12.876 -35.111,31.928c-3.203,2.892 -7.423,4.394 -11.733,4.175c-4.309,-0.219 -8.356,-2.141 -11.248,-5.343c-0.237,-0.262 -0.473,-0.524 -0.709,-0.785c-5.675,-6.283 -5.183,-15.976 1.1,-21.651l44.139,-39.872c2.96,2.711 15.294,12.943 13.562,31.548Z" style="fill:#fff;"/></g><g><path d="M321.574,96.851l59.395,-0.074c4.29,-0.468 8.59,0.787 11.955,3.489c3.364,2.702 5.517,6.63 5.986,10.92c0.038,0.351 0.076,0.701 0.115,1.051c0.441,4.042 -0.461,9.169 -3.007,12.339c-2.546,3.17 -6.222,5.615 -10.288,5.639c-21.707,0.131 -58.402,0.125 -81.23,0.36c-4.265,0.044 -9.39,-3.185 -12.715,-5.856c-3.326,-2.671 -5.455,-6.554 -5.917,-10.794l-0.082,-0.744c-0.083,-0.76 -0.11,-1.514 -0.086,-2.258l0.363,-31.07c10.787,18.374 31.704,17.319 35.511,16.998Z" style="fill:#fff;"/><path d="M286.733,66.495c-0,0 -0.258,-8.248 -0.084,-36.669c0.027,-4.316 1.766,-8.443 4.836,-11.476c3.07,-3.033 7.219,-4.722 11.534,-4.695c0.353,0.002 0.706,0.004 1.058,0.006c8.466,0.052 15.287,6.957 15.236,15.424l0.902,62.978c-4.35,2.94 -30.981,-3.121 -33.482,-25.568Z" style="fill:#fff;"/></g></g></svg>