<?xml version="1.0" encoding="UTF-8" standalone="no"?><!DOCTYPE svg PUBLIC "-//W3C//DTD SVG 1.1//EN" "http://www.w3.org/Graphics/SVG/1.1/DTD/svg11.dtd"><svg width="100%" height="100%" viewBox="0 0 200 81" version="1.1" xmlns="http://www.w3.org/2000/svg" xmlns:xlink="http://www.w3.org/1999/xlink" xml:space="preserve" xmlns:serif="http://www.serif.com/" style="fill-rule:evenodd;clip-rule:evenodd;stroke-linejoin:round;stroke-miterlimit:2;"><g><path d="M91.157,5.978l-11.272,-0c-1.769,1.337 -3.366,2.862 -4.79,4.547l11.729,0c1.289,-1.658 2.741,-3.179 4.333,-4.547Zm-8.735,34.864c-0.47,-1.192 -0.862,-2.419 -1.179,-3.676l-5.114,3.676l6.293,0Zm0.067,-22.734l-12.043,0c-0.612,1.455 -1.104,2.978 -1.477,4.543l12.103,0c0.356,-1.561 0.827,-3.083 1.417,-4.543Zm18.688,-17.901c-1.144,-0.136 -2.302,-0.207 -3.475,-0.207c-5.731,0 -11.079,1.636 -15.614,4.465l10.973,-0c2.459,-1.795 5.191,-3.242 8.116,-4.258Zm-15.465,11.831l-11.814,0c-1.055,1.425 -1.974,2.942 -2.761,4.553l11.998,-0c0.734,-1.593 1.597,-3.118 2.577,-4.553Zm0.98,36.382l-11.742,-0c1.399,1.68 2.981,3.206 4.715,4.544l11.295,-0c-1.567,-1.368 -2.996,-2.891 -4.268,-4.544Zm-6.205,-22.264c0.07,-0.668 0.168,-1.328 0.281,-1.987l-12.12,-0c-0.273,1.481 -0.441,2.999 -0.476,4.543l8.809,-0l3.506,-2.556Zm1.341,28.321c4.587,2.928 10.024,4.635 15.874,4.635c1.173,0 2.331,-0.07 3.475,-0.207c-3.022,-1.047 -5.829,-2.546 -8.349,-4.428l-11,-0Zm1.245,-12.1l-0.62,-0l0.013,-0.026l-8.444,-0l-2.16,1.552c0.58,1.043 1.222,2.045 1.918,3l11.817,-0c-0.967,-1.425 -1.807,-2.943 -2.524,-4.526Zm-14.91,-12.148c0.036,1.544 0.185,3.07 0.453,4.548l0.049,0l6.236,-4.548l-6.738,-0Z" style="fill:#fff;"/><path d="M93.308,52.964l36.065,-0c1.737,-1.342 3.32,-2.864 4.719,-4.544l-45.503,-0c1.398,1.68 2.986,3.202 4.719,4.544Zm18.032,6.148c5.845,0 11.291,-1.707 15.878,-4.631l-31.755,0c4.591,2.924 10.037,4.631 15.877,4.631Zm19.37,-16.757l-3.602,0l-0.014,0.022l-11.025,-0l0.013,-0.022l-5.657,0l-0.009,0.022l-11.025,-0l0.013,-0.022l-5.758,0l-0.013,0.022l-8.92,-0c0.762,1.596 1.672,3.105 2.71,4.521l47.844,0c1.024,-1.416 1.939,-2.925 2.709,-4.521l-7.284,-0l0.018,-0.022Zm-19.37,-42.355c-5.731,0 -11.074,1.636 -15.613,4.465l31.227,-0c-4.531,-2.829 -9.878,-4.465 -15.614,-4.465Zm17.821,5.978l-35.638,-0c-1.763,1.332 -3.369,2.862 -4.785,4.547l45.209,0c-1.421,-1.685 -3.026,-3.215 -4.786,-4.547Zm5.982,6.06l-47.606,0c-1.046,1.425 -1.974,2.942 -2.757,4.548l53.121,-0c-0.779,-1.606 -1.707,-3.123 -2.758,-4.548Z" style="fill:#fff;"/><path d="M147.203,16.674l-5.845,10.151l-7.042,0l4.957,-8.647l-7.538,-0l-7.327,12.746l-5.718,9.94l7.529,-0l4.979,-8.642l7.032,-0l-4.929,8.642l7.863,-0l13.872,-24.19l-7.833,-0Zm-41.391,1.504l-11.818,-0l-33.185,24.212l10.565,0l21.665,-15.565l-1.544,2.392l-6.077,4.755l3.614,-0.04l-3.966,6.932l7.688,-0l11.101,-19.273l1.957,-3.413Zm20.891,6.104l3.488,-6.104l-22.88,-0l-3.456,6.017l-0.044,0.087l7.701,0l-7.657,13.331l-1.857,3.251l7.535,-0l9.548,-16.582l7.622,0Z" style="fill:#fff;"/><path d="M9.173,64.559l4.799,0l2.466,15.862l-4.798,-0l-0.268,-2.265l-5.175,-0l-1.223,2.265l-4.974,-0l9.173,-15.862Zm-1.2,10.197l3.044,0l-0.533,-4.753l-0.044,0l-2.467,4.753Z" style="fill:#fff;fill-rule:nonzero;"/><path d="M30.712,68.627l-4.398,-0l0.844,-4.068l13.684,0l-0.843,4.068l-4.401,-0l-2.442,11.794l-4.886,-0l2.442,-11.794Z" style="fill:#fff;fill-rule:nonzero;"/><path d="M44.484,68.604c3.377,0 5.602,1.553 5.602,5.044c-0,2.952 -1.648,7.063 -6.956,7.063c-3.176,-0 -5.755,-1.532 -5.755,-5.4c-0,-3.686 2.403,-6.707 7.109,-6.707Zm-1.153,8.909c1.733,-0 2.354,-2.554 2.354,-3.557c-0,-1.376 -0.356,-2.155 -1.535,-2.155c-1.754,0 -2.375,2.647 -2.375,3.844c0,0.933 0.312,1.868 1.556,1.868Z" style="fill:#fff;fill-rule:nonzero;"/><path d="M58.699,79.113l-0.045,0c-0.753,1.087 -1.733,1.598 -3.065,1.598c-3.711,-0 -4.221,-3.289 -4.221,-4.688c-0,-4.375 2.287,-7.419 5.733,-7.419c1.333,0 2.577,0.4 3.33,1.711l1.2,-5.756l4.401,0l-3.289,15.862l-4.309,-0l0.265,-1.308Zm0.979,-5.179c-0,-1.288 -0.444,-2.133 -1.578,-2.133c-1.755,0 -2.332,2.155 -2.332,3.822c0,1.046 0.467,1.89 1.62,1.89c1.711,-0 2.29,-2.202 2.29,-3.579Z" style="fill:#fff;fill-rule:nonzero;"/><path d="M66.801,72.381c0.69,-3.068 3.065,-3.777 5.888,-3.777c2.089,0 5.598,0.265 5.598,3.065c0,1.799 -1.399,6.975 -1.399,7.731c0,0.422 0.066,0.753 0.176,1.021l-4.309,-0c-0.11,-0.353 -0.176,-0.731 -0.155,-1.109l-0.044,-0c-0.778,0.933 -2.268,1.399 -3.553,1.399c-1.979,-0 -3.736,-0.867 -3.736,-3.066c-0,-3.043 2.268,-3.865 5.579,-4.111c1.244,-0.088 3.219,0.092 3.219,-1.332c0,-0.801 -0.712,-0.999 -1.376,-0.999c-0.889,0 -1.509,0.312 -1.755,1.178l-4.133,0Zm4.266,5.731c1.489,-0 2.088,-1.087 2.352,-2.801c-0.708,0.356 -1.53,0.447 -2.331,0.514c-0.733,0.063 -1.42,0.443 -1.42,1.285c-0,0.803 0.687,1.002 1.399,1.002Z" style="fill:#fff;fill-rule:nonzero;"/><path d="M89.964,64.559l4.89,0l-1.156,5.51l4.463,0l1.156,-5.51l4.887,0l-3.308,15.862l-4.889,-0l1.31,-6.285l-4.464,0l-1.31,6.285l-4.889,-0l3.31,-15.862Z" style="fill:#fff;fill-rule:nonzero;"/><path d="M111.128,68.604c3.377,0 5.601,1.553 5.601,5.044c0,2.952 -1.647,7.063 -6.956,7.063c-3.175,-0 -5.755,-1.532 -5.755,-5.4c0,-3.686 2.401,-6.707 7.11,-6.707Zm-1.153,8.909c1.733,-0 2.353,-2.554 2.353,-3.557c0,-1.376 -0.356,-2.155 -1.534,-2.155c-1.754,0 -2.375,2.647 -2.375,3.844c-0,0.933 0.311,1.868 1.556,1.868Z" style="fill:#fff;fill-rule:nonzero;"/><path d="M119.763,68.891l4.265,0l-0.375,1.802l0.044,0c0.779,-1.223 2.221,-2.089 3.353,-2.089c0.733,0 1.156,0.044 1.556,0.176l-0.823,3.888c-0.532,-0.198 -1.131,-0.287 -1.688,-0.287c-1.865,0 -2.798,0.797 -3.311,3.22l-0.996,4.82l-4.4,-0l2.375,-11.53Z" style="fill:#fff;fill-rule:nonzero;"/><path d="M128.914,72.381c0.69,-3.068 3.066,-3.777 5.885,-3.777c2.091,0 5.601,0.265 5.601,3.065c-0,1.799 -1.401,6.975 -1.401,7.731c-0,0.422 0.066,0.753 0.179,1.021l-4.31,-0c-0.11,-0.353 -0.176,-0.731 -0.154,-1.109l-0.047,-0c-0.778,0.933 -2.265,1.399 -3.554,1.399c-1.978,-0 -3.729,-0.867 -3.729,-3.066c-0,-3.043 2.261,-3.865 5.572,-4.111c1.244,-0.088 3.223,0.092 3.223,-1.332c0,-0.801 -0.712,-0.999 -1.38,-0.999c-0.888,0 -1.509,0.312 -1.755,1.178l-4.13,0Zm4.266,5.731c1.487,-0 2.088,-1.087 2.353,-2.801c-0.709,0.356 -1.531,0.447 -2.331,0.514c-0.734,0.063 -1.424,0.443 -1.424,1.285c0,0.803 0.69,1.002 1.402,1.002Z" style="fill:#fff;fill-rule:nonzero;"/><path d="M159.053,69.36c0.021,-0.646 -0.202,-1.046 -0.558,-1.31c-0.353,-0.268 -0.866,-0.356 -1.42,-0.356c-0.823,-0 -1.891,0.243 -1.891,1.288c0,1.2 2.381,1.267 3.935,1.821c2.753,0.977 3.686,2.489 3.686,4.376c-0,3.821 -3.708,5.62 -7.152,5.62c-3.641,0 -6.93,-1.663 -6.731,-5.708l4.731,-0c0,0.866 0.202,1.398 0.598,1.798c0.426,0.356 1.003,0.401 1.802,0.401c0.955,-0 2.133,-0.489 2.133,-1.532c0,-1.156 -1.622,-1.31 -3.821,-2.047c-1.934,-0.643 -3.799,-1.664 -3.799,-4.307c-0,-3.579 3.465,-5.223 6.666,-5.223c3.374,0 6.42,1.27 6.332,5.179l-4.511,0Z" style="fill:#fff;fill-rule:nonzero;"/><path d="M164.6,76.023l4.534,-0l-0.911,4.398l-4.533,-0l0.91,-4.398Z" style="fill:#fff;fill-rule:nonzero;"/><path d="M186.101,64.559l4.797,0l2.464,15.862l-4.795,-0l-0.267,-2.265l-5.176,-0l-1.223,2.265l-4.977,-0l9.177,-15.862Zm-1.201,10.197l3.044,0l-0.533,-4.753l-0.044,0l-2.467,4.753Z" style="fill:#fff;fill-rule:nonzero;"/><path d="M195.466,76.023l4.534,-0l-0.911,4.398l-4.533,-0l0.91,-4.398Z" style="fill:#fff;fill-rule:nonzero;"/></g></svg>