<?xml version="1.0" encoding="UTF-8" standalone="no"?><!DOCTYPE svg PUBLIC "-//W3C//DTD SVG 1.1//EN" "http://www.w3.org/Graphics/SVG/1.1/DTD/svg11.dtd"><svg width="100%" height="100%" viewBox="0 0 100 54" version="1.1" xmlns="http://www.w3.org/2000/svg" xmlns:xlink="http://www.w3.org/1999/xlink" xml:space="preserve" xmlns:serif="http://www.serif.com/" style="fill-rule:evenodd;clip-rule:evenodd;stroke-linejoin:round;stroke-miterlimit:2;"><path id="path19" d="M39.777,-0c-3.063,-0 -6.069,2.406 -6.739,5.396l-6.05,26.993c-0.67,2.989 1.257,5.396 4.32,5.396l1.119,-0l3.356,-16.724l7.341,-0l-0.089,0.431l0.001,0c0.323,2.303 1.782,4.006 4.533,4.575c3.676,0.761 7.303,-1.707 8.746,-5.006l8.545,-0c-0.051,0.185 -0.102,0.37 -0.161,0.554c-2.313,7.204 -9.966,12.934 -17.728,11.328c-2.194,-0.454 -4.12,-1.408 -5.716,-2.715l-1.541,7.557l21.209,-0c3.063,-0 6.069,-2.407 6.739,-5.396l6.05,-26.993c0.67,-2.99 -1.257,-5.396 -4.32,-5.396l-21.975,0l-1.061,5.206c2.655,-1 5.559,-1.317 8.364,-0.737c5.787,1.198 9.803,6.049 10.494,11.49l-8.521,0c-0.614,-2.086 -2.207,-3.771 -4.613,-4.269c-3.187,-0.659 -6.361,1.395 -7.963,4.269l-7.559,0c0.013,-0.053 0.021,-0.108 0.034,-0.161c0.001,-0.005 0.002,-0.009 0.003,-0.014l3.407,-15.784l-0.225,-0Z" style="fill:#fff;fill-rule:nonzero;"/><path id="path191" serif:id="path19" d="M3.519,39.885c-0.174,0.002 -0.349,0.008 -0.524,0.002c-0.214,0.01 -0.446,-0.037 -0.642,0.073c-0.129,0.076 -0.174,0.229 -0.201,0.366c-0.712,3.364 -1.425,6.728 -2.137,10.092c-0.03,0.128 -0.024,0.288 0.096,0.37c0.15,0.094 0.337,0.062 0.505,0.069c0.351,-0.009 0.705,0.013 1.056,-0.01c0.202,-0.012 0.3,-0.202 0.357,-0.37c1.333,0.756 3.054,0.616 4.33,-0.195c0.916,-0.585 1.708,-1.403 2.171,-2.394c0.368,-0.806 0.486,-1.733 0.287,-2.599c-0.279,-1.212 -1.367,-2.176 -2.598,-2.333c-0.89,-0.141 -1.799,0.071 -2.605,0.451c0.226,-1.026 0.442,-2.053 0.659,-3.08c0.058,-0.178 -0.029,-0.399 -0.231,-0.423c-0.173,-0.019 -0.348,-0.021 -0.523,-0.019l0,0Zm81.64,0.083c-0.256,-0.002 -0.512,0.003 -0.765,0.029c-0.165,0.044 -0.259,0.202 -0.288,0.36c-0.707,3.339 -1.413,6.68 -2.121,10.019c-0.022,0.129 -0.061,0.288 0.043,0.393c0.117,0.125 0.306,0.102 0.463,0.107c0.399,-0.006 0.797,0.007 1.196,-0.006c0.212,-0.004 0.37,-0.188 0.397,-0.389c0.709,-3.353 1.421,-6.706 2.129,-10.06c0.075,-0.203 -0.057,-0.447 -0.286,-0.442c-0.255,-0.001 -0.512,-0.01 -0.768,-0.011l-0,-0Zm-23.7,2.867c-0.244,-0.001 -0.488,0.018 -0.727,0.052c-0.902,0.129 -1.748,0.545 -2.437,1.136c-0.886,0.742 -1.591,1.755 -1.784,2.911c-0.115,0.74 -0.088,1.533 0.253,2.214c0.409,0.833 1.22,1.452 2.13,1.632c1.152,0.229 2.385,-0.03 3.359,-0.682c0.737,-0.492 1.377,-1.14 1.828,-1.903c0.522,-0.891 0.723,-1.977 0.505,-2.99c-0.211,-0.995 -0.978,-1.838 -1.932,-2.173c-0.384,-0.138 -0.789,-0.196 -1.195,-0.197Zm-8.748,0.001c-0.709,0.014 -1.416,0.214 -2.048,0.529c-0.022,-0.161 -0.053,-0.372 -0.253,-0.391c-0.459,-0.032 -0.921,-0.012 -1.381,-0.011c-0.229,-0.009 -0.386,0.2 -0.41,0.409c-0.691,3.251 -1.384,6.503 -2.077,9.753c-0.035,0.182 -0.095,0.362 -0.092,0.549c0.007,0.145 0.147,0.248 0.286,0.25c0.389,0.019 0.779,0 1.169,0.009c0.175,-0.007 0.376,0.026 0.521,-0.097c0.103,-0.083 0.131,-0.219 0.162,-0.341c0.222,-1.04 0.445,-2.082 0.671,-3.123c0.562,0.335 1.216,0.507 1.869,0.487c1.06,0.002 2.096,-0.411 2.914,-1.076c0.858,-0.689 1.585,-1.6 1.867,-2.68c0.211,-0.823 0.2,-1.732 -0.174,-2.507c-0.403,-0.816 -1.175,-1.448 -2.063,-1.657c-0.317,-0.077 -0.639,-0.109 -0.961,-0.103l-0,0Zm-21.111,0.011c-0.106,-0.002 -0.211,0.001 -0.316,0.008c-1.578,0.062 -2.987,1.04 -3.877,2.3c-0.674,0.946 -0.965,2.166 -0.747,3.31c0.187,0.986 0.917,1.835 1.845,2.203c0.644,0.26 1.357,0.281 2.037,0.191c1.161,-0.177 2.196,-0.849 2.978,-1.704c0.108,-0.134 0.257,-0.298 0.185,-0.484c-0.076,-0.149 -0.237,-0.218 -0.372,-0.299c-0.295,-0.158 -0.577,-0.341 -0.879,-0.488c-0.152,-0.085 -0.328,-0.005 -0.442,0.106c-0.303,0.281 -0.639,0.539 -1.035,0.675c-0.57,0.2 -1.269,0.133 -1.723,-0.292c-0.364,-0.326 -0.501,-0.844 -0.44,-1.319c0.143,-1.171 1.275,-2.155 2.464,-2.08c0.395,0.012 0.785,0.17 1.064,0.452c0.151,0.15 0.375,0.344 0.59,0.19c0.408,-0.242 0.796,-0.514 1.194,-0.769c0.171,-0.102 0.327,-0.319 0.208,-0.516c-0.158,-0.309 -0.413,-0.557 -0.671,-0.782c-0.574,-0.48 -1.323,-0.692 -2.063,-0.702l-0,-0Zm8.292,0.034c-0.295,-0.006 -0.592,0.018 -0.88,0.064c-1.46,0.238 -2.715,1.218 -3.511,2.435c-0.591,0.923 -0.833,2.074 -0.616,3.152c0.202,0.996 0.958,1.846 1.907,2.195c0.65,0.245 1.366,0.254 2.046,0.155c1.376,-0.225 2.561,-1.128 3.362,-2.24c0.681,-0.942 0.978,-2.161 0.761,-3.307c-0.171,-0.918 -0.808,-1.725 -1.646,-2.129c-0.444,-0.219 -0.932,-0.314 -1.423,-0.325Zm30.774,0.021c-0.747,-0.006 -1.494,0.2 -2.162,0.533c-0.004,-0.169 -0.055,-0.387 -0.261,-0.397c-0.44,-0.028 -0.881,-0.008 -1.321,-0.011c-0.208,-0.016 -0.406,0.131 -0.436,0.34c-0.723,3.363 -1.432,6.73 -2.153,10.094c-0.025,0.145 -0.079,0.329 0.043,0.447c0.122,0.111 0.299,0.084 0.451,0.092c0.413,-0.009 0.827,0.011 1.24,-0.01c0.186,-0.011 0.32,-0.177 0.35,-0.352c0.234,-1.066 0.458,-2.134 0.691,-3.201c0.861,0.532 1.936,0.598 2.903,0.361c0.929,-0.223 1.759,-0.762 2.425,-1.439c0.648,-0.64 1.161,-1.441 1.358,-2.338c0.158,-0.736 0.145,-1.529 -0.152,-2.228c-0.392,-0.916 -1.252,-1.618 -2.232,-1.811c-0.246,-0.052 -0.495,-0.078 -0.744,-0.08l0,0Zm-56.016,0.01c-0.101,0.001 -0.202,0.006 -0.302,0.015c-0.981,0.06 -1.918,0.479 -2.669,1.104c-0.93,0.761 -1.692,1.802 -1.892,3.009c-0.102,0.669 -0.085,1.376 0.175,2.009c0.366,0.905 1.186,1.611 2.14,1.828c1.035,0.236 2.141,0.037 3.071,-0.461c0.018,0.16 0.027,0.386 0.231,0.417c0.418,0.05 0.845,0.012 1.268,0.022c0.214,0.016 0.417,-0.141 0.45,-0.354c0.476,-2.245 0.943,-4.492 1.418,-6.738c0.033,-0.164 0.084,-0.33 0.074,-0.499c-0.025,-0.194 -0.253,-0.236 -0.414,-0.228c-0.398,0.006 -0.797,-0.015 -1.195,0.012c-0.223,0.03 -0.311,0.253 -0.355,0.444c-0.589,-0.392 -1.296,-0.587 -2,-0.58Zm75.943,0.038c-0.418,-0.002 -0.838,0.059 -1.236,0.171c-1.166,0.336 -2.152,1.142 -2.863,2.107c-0.743,1.011 -1.061,2.365 -0.699,3.581c0.277,0.91 1.01,1.664 1.908,1.974c1.117,0.377 2.371,0.179 3.398,-0.369c0.014,0.131 -0.002,0.305 0.132,0.382c0.182,0.091 0.394,0.053 0.591,0.061c0.307,-0.013 0.618,0.027 0.923,-0.024c0.189,-0.036 0.285,-0.227 0.313,-0.402c0.488,-2.318 0.98,-4.636 1.467,-6.954c0.064,-0.181 -0.057,-0.397 -0.258,-0.395c-0.435,-0.015 -0.871,-0.014 -1.305,-0.001c-0.239,0.006 -0.353,0.245 -0.399,0.446c-0.581,-0.399 -1.274,-0.575 -1.972,-0.578l0,0.001Zm8.547,0.013c-0.615,0.002 -1.233,0.092 -1.744,0.456c-0.017,-0.135 -0.066,-0.305 -0.228,-0.314c-0.462,-0.026 -0.926,-0.013 -1.388,-0.007c-0.22,-0.004 -0.366,0.196 -0.392,0.396c-0.49,2.321 -0.989,4.64 -1.474,6.962c-0.057,0.182 0.046,0.4 0.253,0.408c0.372,0.028 0.748,0.003 1.122,0.012c0.176,-0.006 0.368,0.025 0.532,-0.061c0.131,-0.074 0.184,-0.226 0.213,-0.366c0.282,-1.356 0.568,-2.712 0.851,-4.068c0.096,-0.534 0.528,-0.945 1.006,-1.16c0.461,-0.202 0.973,-0.091 1.458,-0.133c0.201,-0.013 0.33,-0.204 0.355,-0.389c0.094,-0.469 0.207,-0.933 0.29,-1.403c0.036,-0.153 -0.096,-0.301 -0.245,-0.314c-0.2,-0.012 -0.404,-0.02 -0.609,-0.019l-0,-0Zm-76.017,0.024c-0.582,0 -1.162,0.127 -1.675,0.412c-0.025,-0.115 -0.052,-0.256 -0.193,-0.275c-0.445,-0.028 -0.893,-0.009 -1.34,-0.011c-0.212,-0.014 -0.404,0.146 -0.435,0.354c-0.494,2.318 -0.98,4.638 -1.472,6.956c-0.021,0.13 -0.063,0.29 0.038,0.398c0.117,0.13 0.312,0.105 0.469,0.111c0.399,-0.006 0.798,0.008 1.197,-0.005c0.214,-0.004 0.369,-0.195 0.395,-0.397c0.279,-1.339 0.559,-2.679 0.836,-4.019c0.129,-0.865 1.049,-1.53 1.91,-1.375c0.329,0.063 0.624,0.293 0.754,0.603c0.109,0.258 0.1,0.55 0.048,0.82c-0.274,1.292 -0.545,2.584 -0.818,3.877c-0.021,0.125 -0.055,0.28 0.042,0.384c0.096,0.114 0.262,0.109 0.398,0.112c0.422,-0.005 0.844,0.007 1.266,-0.005c0.2,-0.004 0.361,-0.171 0.389,-0.364c0.296,-1.389 0.586,-2.778 0.881,-4.168c0.136,-0.702 0.167,-1.47 -0.15,-2.129c-0.284,-0.596 -0.878,-0.99 -1.505,-1.15c-0.336,-0.084 -0.686,-0.129 -1.035,-0.129l-0,0Zm53.465,0.003c-0.242,0 -0.485,0.003 -0.727,0.01c-0.208,0.004 -0.349,0.196 -0.371,0.389c-0.298,1.407 -0.607,2.812 -0.9,4.22c-0.11,0.695 -0.145,1.457 0.201,2.095c0.334,0.622 1.005,0.993 1.683,1.117c0.823,0.147 1.718,0.099 2.457,-0.327c0.021,0.124 0.059,0.264 0.212,0.271c0.468,0.022 0.939,0.01 1.408,0.006c0.2,-0 0.367,-0.163 0.393,-0.357c0.485,-2.269 0.962,-4.54 1.448,-6.809c0.024,-0.159 0.097,-0.34 -0.003,-0.487c-0.104,-0.14 -0.294,-0.122 -0.446,-0.127c-0.42,0.008 -0.841,-0.01 -1.259,0.009c-0.216,0.01 -0.353,0.213 -0.375,0.41c-0.288,1.352 -0.575,2.704 -0.862,4.056c-0.135,0.812 -0.982,1.401 -1.789,1.307c-0.309,-0.031 -0.605,-0.199 -0.775,-0.462c-0.178,-0.263 -0.205,-0.603 -0.136,-0.907c0.284,-1.334 0.574,-2.666 0.852,-4.001c0.066,-0.191 -0.078,-0.408 -0.283,-0.403c-0.242,-0.006 -0.485,-0.009 -0.728,-0.01l0,0Zm-24.208,1.931c0.289,0.006 0.575,0.069 0.826,0.219c0.367,0.218 0.628,0.606 0.677,1.033c0.184,1.416 -1.209,2.789 -2.622,2.588c-0.484,-0.055 -0.943,-0.357 -1.149,-0.803c-0.202,-0.447 -0.168,-0.969 -0.008,-1.423c0.294,-0.756 0.959,-1.392 1.761,-1.57c0.168,-0.031 0.342,-0.048 0.515,-0.044l0,-0Zm8.6,0.027c0.217,0.001 0.433,0.038 0.635,0.118c0.409,0.164 0.738,0.526 0.84,0.957c0.13,0.538 -0.004,1.12 -0.312,1.574c-0.4,0.598 -1.043,1.072 -1.776,1.128c-0.499,0.053 -1.037,-0.096 -1.374,-0.482c-0.395,-0.421 -0.433,-1.062 -0.275,-1.592c0.247,-0.747 0.869,-1.373 1.62,-1.612c0.207,-0.06 0.425,-0.093 0.642,-0.091Zm9.237,0.039c0.29,0.004 0.578,0.066 0.83,0.215c0.372,0.218 0.637,0.609 0.684,1.039c0.184,1.42 -1.219,2.798 -2.636,2.585c-0.501,-0.059 -0.971,-0.39 -1.161,-0.862c-0.193,-0.5 -0.126,-1.073 0.098,-1.551c0.329,-0.661 0.936,-1.214 1.667,-1.377c0.169,-0.033 0.343,-0.051 0.518,-0.049Zm-30.87,0.016c0.416,0.007 0.832,0.142 1.121,0.453c0.442,0.444 0.475,1.15 0.281,1.716c-0.343,0.92 -1.259,1.671 -2.271,1.633c-0.558,0.001 -1.121,-0.316 -1.353,-0.834c-0.249,-0.567 -0.138,-1.243 0.181,-1.759c0.365,-0.578 0.943,-1.055 1.629,-1.174c0.135,-0.025 0.273,-0.037 0.412,-0.035Zm-25.158,0.003c0.285,-0.005 0.571,0.047 0.827,0.174c0.444,0.22 0.749,0.683 0.775,1.178c0.091,1.055 -0.677,2.048 -1.64,2.405c-0.549,0.187 -1.206,0.183 -1.691,-0.167c-0.342,-0.238 -0.556,-0.636 -0.582,-1.05c-0.095,-1.115 0.748,-2.183 1.804,-2.473c0.165,-0.041 0.336,-0.064 0.507,-0.067Zm-9.025,-0c0.334,-0.005 0.672,0.068 0.954,0.251c0.349,0.224 0.586,0.609 0.633,1.021c0.178,1.418 -1.221,2.801 -2.639,2.586c-0.481,-0.058 -0.927,-0.371 -1.134,-0.81c-0.225,-0.506 -0.159,-1.103 0.066,-1.598c0.342,-0.704 1,-1.292 1.788,-1.42c0.109,-0.018 0.22,-0.028 0.332,-0.03Zm85.05,0.03c0.338,0.01 0.672,0.098 0.943,0.308c0.341,0.253 0.546,0.665 0.558,1.088c0.061,0.974 -0.616,1.875 -1.474,2.274c-0.523,0.227 -1.153,0.272 -1.674,0.015c-0.421,-0.207 -0.72,-0.635 -0.761,-1.103c-0.134,-1.159 0.77,-2.286 1.883,-2.54c0.124,-0.022 0.252,-0.037 0.38,-0.042c0.049,-0.002 0.097,-0.002 0.145,-0l0,-0Z" style="fill:#fff;fill-rule:nonzero;"/></svg>