<?xml version="1.0" encoding="UTF-8" standalone="no"?><!DOCTYPE svg PUBLIC "-//W3C//DTD SVG 1.1//EN" "http://www.w3.org/Graphics/SVG/1.1/DTD/svg11.dtd"><svg width="100%" height="100%" viewBox="0 0 200 93" version="1.1" xmlns="http://www.w3.org/2000/svg" xmlns:xlink="http://www.w3.org/1999/xlink" xml:space="preserve" xmlns:serif="http://www.serif.com/" style="fill-rule:evenodd;clip-rule:evenodd;stroke-linejoin:round;stroke-miterlimit:2;"><g><path d="M49.095,90.196c-1.248,0.241 -2.536,0.402 -3.219,0.402c-2.295,0.12 -2.696,-0.845 -2.696,-4.185c-0,-3.341 0.442,-4.306 2.696,-4.185c0.683,0.04 2.133,0.322 3.219,0.443l0.322,-1.931c-1.046,-0.202 -2.455,-0.444 -3.421,-0.484c-5.07,-0.242 -6.277,1.891 -6.277,6.197c-0,4.265 1.247,6.358 6.277,6.198c1.046,-0.041 2.414,-0.242 3.501,-0.444l-0.402,-2.011Z" style="fill:#fff;fill-rule:nonzero;"/><path d="M3.34,85.005l-0,5.03l3.823,0c1.811,0 2.656,-0.483 2.656,-2.696c0,-2.295 -1.65,-2.334 -2.858,-2.334l-3.621,-0Zm-0,-6.963l-0,4.668l3.621,0c1.651,0 2.254,-0.683 2.254,-2.534c0,-1.69 -0.563,-2.134 -2.495,-2.134l-3.38,0Zm3.421,-2.333c3.702,0 5.874,1.529 5.874,4.467c0,1.771 -0.603,2.857 -1.569,3.541c1.168,0.603 2.214,1.65 2.214,3.661c0,3.823 -2.697,5.031 -6.076,5.031l-7.204,-0l0,-16.7l6.761,0Z" style="fill:#fff;fill-rule:nonzero;"/><path d="M21.61,86.533c-0,0 -1.086,0 -2.213,0.121c-1.127,0.161 -1.771,0.724 -1.771,1.892c0,0.885 0.282,1.65 1.489,1.891c0.765,0.161 1.569,0.121 2.495,-0l-0,-3.904Zm-6.318,-5.633c1.972,-0.403 3.381,-0.684 4.829,-0.684c3.34,-0 4.869,1.569 4.869,3.983l0,8.008c-2.052,0.242 -4.104,0.483 -6.358,0.242c-2.777,-0.281 -4.467,-1.69 -4.467,-3.944c0,-2.011 1.207,-3.461 4.386,-3.823c1.368,-0.16 3.059,-0.16 3.059,-0.16l-0,-0.443c-0,-1.248 -0.443,-1.811 -1.529,-1.811c-1.167,-0 -2.576,0.282 -4.468,0.644l-0.321,-2.012Z" style="fill:#fff;fill-rule:nonzero;"/><path d="M58.431,86.212c-0,-3.058 -1.006,-3.984 -2.616,-3.984c-2.011,0 -2.737,0.684 -2.737,3.943c0,3.461 0.483,4.387 2.737,4.387c2.213,-0 2.616,-1.086 2.616,-4.346m-2.616,-5.956c3.782,0 6.036,1.851 6.036,5.996c0,4.145 -1.248,6.358 -6.036,6.358c-4.748,0 -6.157,-1.931 -6.157,-6.398c0,-4.226 2.012,-5.956 6.157,-5.956" style="fill:#fff;fill-rule:nonzero;"/><path d="M75.493,82.389c-0.563,-0.161 -1.449,-0.282 -2.294,-0.161c-1.69,0.241 -2.092,1.167 -2.092,3.984c0,2.937 0.362,4.185 2.817,4.346c1.006,0.04 1.569,-0.04 1.569,-0.04l0,-8.129Zm-0.04,-6.68l3.38,0l0,16.58c-1.851,0.2 -3.058,0.282 -4.427,0.282c-5.633,-0 -6.801,-2.335 -6.801,-6.439c0,-3.663 1.289,-5.956 5.554,-5.956c0.885,0 1.65,0.08 2.294,0.161l-0,-4.628Z" style="fill:#fff;fill-rule:nonzero;"/><path d="M88.411,85.367c-0.081,-2.375 -0.765,-3.099 -2.375,-3.099c-1.529,-0 -2.213,0.724 -2.294,3.099l4.669,-0Zm2.937,6.64c-1.811,0.402 -3.501,0.603 -5.15,0.603c-4.991,0 -5.997,-2.616 -5.997,-6.197c0,-4.548 2.093,-6.157 5.674,-6.157c3.864,0 5.875,1.811 5.875,5.755l0,1.367l-8.088,0c0.08,2.215 0.564,3.18 2.495,3.18c1.127,-0 3.541,-0.322 4.748,-0.564l0.443,2.013Z" style="fill:#fff;fill-rule:nonzero;"/><path d="M26.761,81.423c1.931,-0.765 3.702,-1.207 5.754,-1.207c4.306,-0 5.795,2.093 5.795,5.955l0,6.157l-3.38,0l-0,-6.157c-0,-2.937 -0.644,-3.943 -2.456,-3.943c-0.884,0 -1.851,0.201 -2.414,0.362l-0,9.738l-3.299,0l-0,-10.905Z" style="fill:#fff;fill-rule:nonzero;"/></g><path d="M142.241,44.43l28.879,28.817l28.88,-28.817l-6.726,-6.726l-22.154,22.153l-15.427,-15.427l15.427,-15.427l6.603,6.541l6.664,-6.664l-13.267,-13.33l-28.879,28.88Z" style="fill:#fff;fill-rule:nonzero;"/><path d="M171.12,0l-28.879,28.88l6.726,6.664l22.153,-22.154l15.427,15.49l-15.427,15.427l-6.603,-6.603l-6.664,6.726l13.267,13.267l28.88,-28.817l-28.88,-28.88Z" style="fill:#fff;fill-rule:nonzero;"/><g><path d="M134.285,90.196c-1.247,0.241 -2.534,0.402 -3.219,0.402c-2.293,0.12 -2.696,-0.845 -2.696,-4.185c0,-3.341 0.443,-4.306 2.696,-4.185c0.685,0.04 2.133,0.322 3.219,0.443l0.323,-1.931c-1.047,-0.202 -2.456,-0.444 -3.421,-0.484c-5.07,-0.242 -6.278,1.891 -6.278,6.197c0,4.265 1.248,6.358 6.278,6.198c1.047,-0.041 2.415,-0.242 3.501,-0.444l-0.403,-2.011Z" style="fill:#fff;fill-rule:nonzero;"/><path d="M123.984,90.196c-1.248,0.241 -2.536,0.402 -3.219,0.402c-2.294,0.12 -2.696,-0.845 -2.696,-4.185c-0,-3.341 0.442,-4.306 2.696,-4.185c0.683,0.04 2.133,0.322 3.219,0.443l0.322,-1.931c-1.046,-0.202 -2.455,-0.444 -3.421,-0.484c-5.07,-0.242 -6.277,1.891 -6.277,6.197c0,4.265 1.247,6.358 6.277,6.198c1.047,-0.041 2.414,-0.242 3.502,-0.444l-0.403,-2.011Z" style="fill:#fff;fill-rule:nonzero;"/><path d="M105.473,90.236c3.702,0 4.346,-1.852 4.346,-6.438c-0,-4.428 -1.65,-5.916 -4.346,-5.916c-3.259,-0 -4.467,1.207 -4.467,5.875c-0.04,4.909 0.724,6.479 4.467,6.479m7.807,-6.479c-0,5.795 -1.53,8.773 -7.807,8.773c-6.237,-0 -7.928,-2.616 -7.928,-8.853c0,-5.876 2.495,-8.169 7.928,-8.169c4.95,-0 7.807,2.495 7.807,8.249" style="fill:#fff;fill-rule:nonzero;"/></g><path d="M136.257,80.458l3.301,-0l-0,11.911l-3.301,0l0,-11.911Zm0,-4.306l3.301,-0l-0,2.494l-3.301,0l0,-2.494Z" style="fill:#fff;fill-rule:nonzero;"/><g><path d="M149.094,82.389c-0.562,-0.161 -1.448,-0.282 -2.293,-0.161c-1.691,0.241 -2.092,1.167 -2.092,3.984c-0,2.937 0.362,4.225 2.816,4.346l0.604,-0c0.282,-0 0.685,-0.04 0.965,-0.04l-0,-8.129Zm-0,-6.68l3.341,0l0,16.58c-1.892,0.16 -3.059,0.282 -4.386,0.282c-5.635,-0 -6.801,-2.335 -6.801,-6.439c-0,-3.663 1.287,-5.956 5.553,-5.956c0.886,0 1.649,0.08 2.293,0.161l-0,-4.628Z" style="fill:#fff;fill-rule:nonzero;"/><path d="M167.203,81.423c1.931,-0.765 3.702,-1.207 5.754,-1.207c4.306,-0 5.795,2.093 5.795,5.955l0,6.157l-3.38,0l-0,-6.157c-0,-2.937 -0.644,-3.943 -2.415,-3.943c-0.884,0 -1.851,0.201 -2.414,0.362l-0,9.738l-3.299,0l-0,-10.905l-0.041,-0Z" style="fill:#fff;fill-rule:nonzero;"/><path d="M184.95,77.721l0,2.817l2.656,0l-0,2.012l-2.656,-0l0,5.916c0,1.368 0.12,1.89 0.684,1.971c0.523,0.081 1.046,-0 1.931,-0.081l0.403,1.972c-1.449,0.282 -2.495,0.282 -3.018,0.282c-2.938,0 -3.461,-1.368 -3.461,-4.144l0,-5.916l-2.052,-0l-0,-2.012l2.052,0l0,-2.817l3.461,-0Z" style="fill:#fff;fill-rule:nonzero;"/><path d="M162.253,85.367c-0.08,-2.375 -0.765,-3.099 -2.373,-3.099c-1.53,-0 -2.215,0.724 -2.295,3.099l4.668,-0Zm2.939,6.64c-1.812,0.362 -3.502,0.603 -5.152,0.603c-4.989,0 -5.996,-2.616 -5.996,-6.197c-0,-4.548 2.093,-6.157 5.715,-6.157c3.863,0 5.875,1.811 5.875,5.755l-0,1.367l-8.088,0c0.08,2.215 0.563,3.18 2.494,3.18c1.127,-0 3.542,-0.322 4.749,-0.564l0.403,2.013Z" style="fill:#fff;fill-rule:nonzero;"/><path d="M196.619,85.367c-0.08,-2.375 -0.764,-3.099 -2.373,-3.099c-1.53,-0 -2.213,0.724 -2.295,3.099l4.668,-0Zm2.939,6.64c-1.851,0.402 -3.502,0.603 -5.152,0.603c-4.989,0 -5.996,-2.616 -5.996,-6.197c0.041,-4.548 2.134,-6.157 5.715,-6.157c3.863,0 5.875,1.811 5.875,5.755l-0,1.367l-8.088,0c0.08,2.215 0.563,3.18 2.494,3.18c1.127,-0 3.542,-0.322 4.749,-0.564l0.403,2.013Z" style="fill:#fff;fill-rule:nonzero;"/></g></svg>