<?xml version="1.0" encoding="UTF-8" standalone="no"?><!DOCTYPE svg PUBLIC "-//W3C//DTD SVG 1.1//EN" "http://www.w3.org/Graphics/SVG/1.1/DTD/svg11.dtd"><svg width="100%" height="100%" viewBox="0 0 1024 197" version="1.1" xmlns="http://www.w3.org/2000/svg" xmlns:xlink="http://www.w3.org/1999/xlink" xml:space="preserve" xmlns:serif="http://www.serif.com/" style="fill-rule:evenodd;clip-rule:evenodd;stroke-linejoin:round;stroke-miterlimit:2;"><path id="path3360" d="M5.567,5.718l-0,185.564l1012.87,-0l0,-185.564l-1012.87,0Zm658.75,119.07c-7.732,10.825 -20.876,17.01 -36.34,17.01c-27.061,0 -45.618,-17.783 -45.618,-44.844c0,-27.062 18.557,-44.845 45.618,-44.845c13.917,0 25.515,4.639 33.247,13.144l0.773,0.773l-10.825,10.825l-0.773,-0.773c-6.185,-5.412 -13.917,-8.505 -22.422,-8.505c-16.237,-0 -27.834,11.597 -27.834,29.381c-0,17.783 11.597,29.38 27.834,29.38c7.732,0 14.69,-2.319 19.33,-6.958l-0,-14.691l-20.103,0l-0,-14.69l37.886,0l-0,34.793l-0.773,0Zm88.915,-54.896l-49.483,0l-0,20.103l45.617,0l0,15.464l-45.617,-0l-0,35.566l-17.783,-0l-0,-86.596l67.266,-0l0,15.463Zm73.452,0l-23.968,0l-0,71.133l-17.783,-0l-0,-71.133l-23.196,0l0,-15.463l64.947,-0l0,15.463Zm142.266,71.133l-85.823,-0l-0,-86.596l85.823,-0l-0,86.596Z" style="fill:#fff;fill-rule:nonzero;"/></svg>