<?xml version="1.0" encoding="UTF-8" standalone="no"?><!DOCTYPE svg PUBLIC "-//W3C//DTD SVG 1.1//EN" "http://www.w3.org/Graphics/SVG/1.1/DTD/svg11.dtd"><svg width="100%" height="100%" viewBox="0 0 600 450" version="1.1" xmlns="http://www.w3.org/2000/svg" xmlns:xlink="http://www.w3.org/1999/xlink" xml:space="preserve" xmlns:serif="http://www.serif.com/" style="fill-rule:evenodd;clip-rule:evenodd;stroke-linejoin:round;stroke-miterlimit:2;"><path d="M479.775,231.951l0,109.846c0,28.641 -23.081,51.723 -51.618,51.723l-254.209,-0c-28.642,-0 -51.723,-23.186 -51.723,-51.723l-0,-109.846c-0,-13.954 5.56,-27.278 15.632,-37.035l127.157,-123.8c20.039,-19.514 52.038,-19.514 72.077,-0l127.052,123.905c9.967,9.757 15.632,23.081 15.632,36.93Zm-284.424,7.239l-0,32.209c4.301,-5.561 9.127,-7.974 16.366,-7.974c12.38,0 24.131,8.079 24.131,28.642l-0,33.992l-22.767,0l0,-33.887c-0.21,-6.925 -3.777,-9.128 -8.288,-9.128c-4.511,0 -9.442,3.358 -9.547,10.492l-0,32.418l-22.977,0l0,-86.764l23.082,-0Zm98.515,25.704l21.507,-0l0,61.375l-21.088,0l-1.049,-6.609c-5.245,5.98 -13.429,8.078 -20.248,7.763c-17.941,-1.154 -28.118,-13.953 -28.118,-31.789c0,-18.15 11.961,-32.104 29.796,-32.104c8.708,0 14.793,2.938 17.941,7.974l1.259,-6.61Zm-26.229,30.635c0,8.603 5.456,13.429 12.275,13.429c7.764,0 12.695,-6.19 12.695,-13.429c-0,-8.183 -4.616,-13.534 -12.695,-13.534c-6.714,0 -12.275,4.931 -12.275,13.534Zm101.138,-32.104c-7.869,0 -13.639,2.518 -17.101,6.61l-0.105,-0l0,-30.845l-22.871,-0l-0,86.974l20.353,0l1.049,-6.609c5.246,5.98 13.429,8.078 20.249,7.763c17.94,-1.154 28.117,-12.485 28.117,-31.789c0.105,-18.78 -11.855,-32.104 -29.691,-32.104Zm-5.246,45.638c-7.763,0 -12.275,-6.4 -12.275,-12.799c0,-7.449 4.197,-14.164 12.275,-14.164c6.925,-0 12.275,5.036 12.275,13.534c0,8.498 -5.455,13.429 -12.275,13.429Zm68.195,17.206l0,-60.431l-22.976,0l-0,60.431l22.976,0Z" style="fill:#fff;"/><path d="M420.603,125.252c9.442,0 17.101,-7.659 17.101,-17.101c0,-9.442 -7.659,-17.101 -17.101,-17.101c-9.442,-0 -17.101,7.659 -17.101,17.101c-0.105,9.442 7.659,17.101 17.101,17.101Z" style="fill:#fff;fill-rule:nonzero;"/></svg>