<?xml version="1.0" encoding="UTF-8" standalone="no"?><!DOCTYPE svg PUBLIC "-//W3C//DTD SVG 1.1//EN" "http://www.w3.org/Graphics/SVG/1.1/DTD/svg11.dtd"><svg width="100%" height="100%" viewBox="0 0 400 84" version="1.1" xmlns="http://www.w3.org/2000/svg" xmlns:xlink="http://www.w3.org/1999/xlink" xml:space="preserve" xmlns:serif="http://www.serif.com/" style="fill-rule:evenodd;clip-rule:evenodd;stroke-linejoin:round;stroke-miterlimit:2;"><g><path d="M42.542,0c23.181,0 41.978,18.794 41.978,41.979c0,23.189 -18.797,41.983 -41.978,41.983c-23.185,0 -41.988,-18.794 -41.988,-41.983c0,-23.185 18.803,-41.979 41.988,-41.979Zm-0,3.997c-20.982,-0 -37.985,17.004 -37.985,37.982c-0,20.977 17.003,37.985 37.985,37.985c20.978,-0 37.981,-17.008 37.981,-37.985c-0,-20.978 -17.003,-37.982 -37.981,-37.982Z" style="fill:#fff;"/><path d="M51.179,26.633c0.926,0.385 1.575,1.306 1.575,2.371c0,0.56 -0.174,1.086 -0.484,1.508l-8.582,14.778c-0.211,0.423 -0.648,0.709 -1.151,0.709c-0.508,0 -0.954,-0.3 -1.155,-0.737l-8.582,-14.773c-0.296,-0.418 -0.465,-0.925 -0.465,-1.47c0,-1.033 0.611,-1.917 1.48,-2.33c0.056,-0.042 0.131,-0.076 0.22,-0.112c2.659,-0.959 5.52,-1.485 8.507,-1.485c3.001,0 5.876,0.531 8.539,1.503c0.038,0.014 0.066,0.018 0.098,0.038Zm-25.241,4.847c0.653,-0.493 1.558,-0.578 2.311,-0.145c0.399,0.23 0.686,0.563 0.863,0.958l6.92,12.053c0.206,0.314 0.24,0.737 0.033,1.089c-0.207,0.363 -0.602,0.554 -0.992,0.527l-13.894,0.027c-0.413,0.038 -0.841,-0.046 -1.221,-0.267c-0.729,-0.423 -1.104,-1.208 -1.038,-1.992c-0.009,-0.056 0,-0.122 0.014,-0.202c0.394,-2.259 1.193,-4.491 2.406,-6.59c1.225,-2.114 2.766,-3.922 4.532,-5.411c0.024,-0.018 0.047,-0.028 0.066,-0.047Zm33.199,0c-0.653,-0.493 -1.56,-0.578 -2.311,-0.145c-0.394,0.23 -0.69,0.563 -0.865,0.958l-6.913,12.053c-0.211,0.314 -0.24,0.737 -0.038,1.089c0.211,0.363 0.601,0.554 0.991,0.527l13.898,0.027c0.414,0.038 0.838,-0.046 1.222,-0.267c0.723,-0.423 1.104,-1.208 1.039,-1.992c0.004,-0.056 0.004,-0.122 -0.015,-0.202c-0.404,-2.259 -1.197,-4.491 -2.41,-6.59c-1.221,-2.114 -2.761,-3.922 -4.527,-5.411c-0.024,-0.018 -0.047,-0.028 -0.071,-0.047Zm-14.542,18.639l0,12.87l-4.115,0l0,-12.87c-1.968,-0.005 -4.533,-0.01 -5.505,-0.043l-13.664,0.033c-1.156,0.057 -2.34,-0.201 -3.411,-0.822c-2.08,-1.198 -3.193,-3.415 -3.099,-5.636c0,-0.329 0.033,-0.616 0.07,-0.846c0.488,-2.719 1.451,-5.406 2.908,-7.929c1.461,-2.531 3.311,-4.711 5.443,-6.501c1.428,-1.052 3.429,-1.578 5.276,-1.258c0.511,-1.757 1.732,-3.209 3.325,-4.036c0.296,-0.173 0.583,-0.291 0.812,-0.379c3.101,-1.118 6.436,-1.73 9.907,-1.73c3.485,0 6.835,0.616 9.944,1.748c1.79,0.78 3.386,2.405 4.053,4.345c1.762,-0.405 3.579,-0.009 5.012,1.08c2.128,1.785 4.289,4.2 5.75,6.731c1.461,2.523 2.414,5.21 2.902,7.929c0.038,0.23 0.076,0.517 0.08,0.846c0.09,2.221 -1.028,4.438 -3.105,5.636c-1.07,0.621 -2.259,0.879 -3.419,0.822l-13.66,-0.033c-0.962,0.033 -3.532,0.038 -5.504,0.043Z" style="fill:#fff;"/><path d="M121.017,19.991l10.254,20.996l10.249,-20.996l15.506,0l0,41.987l-15.506,0l0,-20.991l-10.249,20.991l-10.254,-20.991l0,20.991l-15.505,-0l0,-41.987l15.505,-0Z" style="fill:#fff;"/><path d="M161.999,61.983l12.059,-41.992l27.389,0l12.062,41.992l-15.501,0l-1.982,-6.895l-16.548,-0l-1.978,6.895l-15.501,0Zm25.751,-35.702l-6.295,21.917l12.593,0l-6.298,-21.917Z" style="fill:#fff;"/><path d="M247.464,20.02c6.759,0 12.236,5.472 12.236,12.235c0,6.76 -5.477,12.236 -12.236,12.236l-13.513,0l0,17.492l-15.501,0l0,-41.963l29.014,0Zm-9.892,4.804c3.499,0 6.891,1.87 6.891,5.675c0,3.805 -2.996,6.886 -6.891,6.886l-3.359,0l0,-12.561l3.359,0Z" style="fill:#fff;"/><path d="M265.079,19.991l41.212,0l0,6.895l-25.712,0l0,10.677l25.712,0l0,6.886l-25.712,0l0,17.534l-15.5,0l0,-41.992Z" style="fill:#fff;"/><path d="M374.287,55.088l25.713,0l-0,6.89l-41.218,0l-0,-41.987l41.218,0l-0,6.895l-25.713,0l-0,10.677l25.713,0l-0,6.886l-25.713,0l-0,10.639Z" style="fill:#fff;"/><path d="M352.967,51.486l0,10.492l-15.247,0l0,-10.154c0.01,-0.114 0.01,-0.226 0.01,-0.338c0,-3.801 -3.096,-6.887 -6.891,-6.887l-3.364,0l0,17.379l-15.754,0.005l0,-41.978l30.748,-0c5.8,-0 10.498,4.702 10.498,10.498c0,5.791 -4.698,10.489 -10.498,10.489c5.683,-0 10.315,4.514 10.498,10.151c0.004,0.112 0,0.23 0,0.343Zm0,-0.343l0,0.343c0,-0.113 0.004,-0.231 0,-0.343Zm-22.128,-26.314c3.406,0 6.891,1.869 6.891,5.674c0,3.801 -3.086,6.887 -6.891,6.887l-3.364,0l0,-12.561l3.364,0Z" style="fill:#fff;"/></g></svg>