<?xml version="1.0" encoding="UTF-8" standalone="no"?><!DOCTYPE svg PUBLIC "-//W3C//DTD SVG 1.1//EN" "http://www.w3.org/Graphics/SVG/1.1/DTD/svg11.dtd"><svg width="100%" height="100%" viewBox="0 0 400 310" version="1.1" xmlns="http://www.w3.org/2000/svg" xmlns:xlink="http://www.w3.org/1999/xlink" xml:space="preserve" xmlns:serif="http://www.serif.com/" style="fill-rule:evenodd;clip-rule:evenodd;stroke-linejoin:round;stroke-miterlimit:2;"><path d="M167.669,209.012c-10.409,-0.519 -18.695,6.109 -18.695,18.575l0,24.734c0,1.242 1.141,1.026 1.434,1.026l4.148,-0c0.907,-0 1.373,-0.117 1.373,-1.098l-0,-24.832c-0,-7.868 4.648,-11.899 12.051,-11.697c0.6,-0 1.347,-0.263 1.347,-1.275l0,-3.954c0,-1.108 -0.693,-1.504 -1.658,-1.479m181.412,-0c-10.393,-0.519 -18.668,6.109 -18.668,18.575c0,-0 -0.012,23.496 -0.012,24.734c0,1.242 1.149,1.026 1.448,1.026l4.13,-0c0.912,-0 1.384,-0.117 1.384,-1.098l-0,-24.832c-0,-7.868 4.627,-11.899 12.042,-11.697c0.598,-0 1.361,-0.263 1.361,-1.275l-0,-3.954c-0,-1.108 -0.727,-1.504 -1.685,-1.479m-31.654,0.988l-4.185,-0c-0.91,-0 -1.386,0.092 -1.386,1.085l-0,41.265c-0,1.234 1.161,0.997 1.459,0.997l4.185,-0c0.895,-0 1.381,-0.11 1.381,-1.077l0,-41.271c0,-1.253 -1.155,-0.999 -1.454,-0.999m-70.544,13.757c0.608,-0.249 0.867,-0.9 0.497,-1.564c-3.046,-5.538 -10.5,-8.577 -17.647,-5c-8.507,4.269 -8.247,13.604 -7.546,15.835c0.3,0.943 1.19,0.946 1.706,0.743c0.526,-0.222 21.43,-9.328 22.99,-10.014m-10.799,-14.83c9.37,-0 17.915,5.628 20.508,16.522c0.232,0.88 -0.304,1.447 -1.084,1.762c-0.031,0.008 -25.041,10.926 -30.047,13.093c-0.664,0.272 -0.911,0.92 -0.422,1.792c1.709,2.952 7.013,5.734 11.474,5.734c5.229,0 9.769,-2.666 12.559,-7.264c0,-0 0.366,-0.699 1.214,-0.699l4.658,-0c1.084,-0 1.396,1.02 1.192,1.53c-3.525,8.274 -10.357,12.913 -19.623,12.913c-12.237,-0 -22.027,-9.918 -22.027,-22.598c-0,-14.092 9.79,-22.785 21.598,-22.785m46.615,-0.036c-10.179,-0 -17.798,7.171 -17.798,18.111l-0,24.84c-0,1.136 0.152,1.508 1.536,1.508l3.842,0c1.186,0 1.597,0 1.597,-1.179l0,-25.42c0,-6.49 4.199,-11.193 10.823,-11.193c6.548,-0 10.756,4.703 10.756,11.193l-0,25.42c-0,0.978 0.351,1.176 1.359,1.176l4.02,-0c1.498,-0 1.59,-0.334 1.59,-1.576l-0,-24.769c-0,-10.94 -7.532,-18.111 -17.725,-18.111m-163.516,38.654c7.952,0 14.406,-7.063 14.406,-15.736c0,-8.85 -6.454,-16.089 -14.406,-16.089c-7.858,-0 -14.322,7.239 -14.322,16.089c-0,8.673 6.464,15.736 14.322,15.736m-0,-38.654c12.169,-0 21.436,10.277 21.436,22.918c0,12.44 -9.267,22.636 -21.436,22.636c-12.056,-0 -21.421,-10.196 -21.421,-22.636c-0,-12.641 9.365,-22.918 21.421,-22.918m-48.512,38.985c7.859,0 14.304,-7.079 14.304,-16.164c0,-9.089 -6.445,-16.154 -14.304,-16.154c-7.789,-0 -14.395,7.142 -14.395,16.154c0,9.024 6.537,16.164 14.395,16.164m-0,-38.985c11.736,-0 21.334,9.769 21.334,22.821c-0,12.982 -9.432,22.733 -21.24,22.733c-4.952,-0 -9.627,-1.972 -12.942,-5.334c-0.939,-0.962 -1.803,-0.483 -1.803,0.412l-0,21.312c-0,1.791 -0.148,1.791 -1.773,1.791l-3.279,-0c-1.561,-0 -1.734,-0 -1.734,-1.791l0,-39.123c0,-12.792 9.349,-22.821 21.437,-22.821m139.137,1.109c0.627,-0 1.186,0.381 0.911,1.233c-1.053,3.113 -0.355,1.05 -14.724,41.256c-0,0 -0.304,0.861 -0.885,0.861l-6.383,0c-0.582,0 -0.873,-0.861 -0.873,-0.861c-0,0 -14.345,-40.15 -14.73,-41.256c-0.288,-0.852 0.279,-1.233 0.928,-1.233l5.46,-0c0,-0 0.605,-0.084 0.822,0.555c0.262,0.832 10.793,31.098 11.142,32.089c0.066,0.241 0.215,0.364 0.355,0.389c0.04,0.026 0.089,-0 0.089,-0c0.032,-0 0.068,0.026 0.086,-0c0.151,-0.025 0.278,-0.148 0.364,-0.389c0.338,-0.991 10.868,-31.257 11.161,-32.089c0.194,-0.639 0.792,-0.555 0.792,-0.555l5.485,-0" style="fill:#fff;fill-rule:nonzero;"/><path d="M328.884,181.967c-0,-1.039 -0.605,-1.924 -1.479,-2.329l-0,-0.016l-0.049,-0.023c-0.023,0 -0.036,-0.004 -0.048,-0.004l-21.754,-13.698l22.209,-16.3l0.007,0l0.023,-0.02l0,-0.006c0.66,-0.457 1.091,-1.237 1.091,-2.112c-0,-1.297 -0.95,-2.37 -2.199,-2.538l-0.011,-0.039l-27.38,-2.818l23.962,-29.9c0.464,-0.458 0.763,-1.096 0.763,-1.812c0,-1.393 -1.121,-2.53 -2.493,-2.53c-0.06,-0 -0.105,0.01 -0.168,0.01l-0.02,-0.037l-37.943,6.264l11.254,-25.482l-0.012,-0.027c0.108,-0.294 0.18,-0.608 0.18,-0.945c0,-1.445 -1.146,-2.624 -2.585,-2.624c-0.268,0 -0.553,0.066 -0.814,0.147l-0.027,-0.02l-25.138,11.493l6.058,-37.978l-0.011,-0c0.024,-0.187 0.05,-0.365 0.05,-0.551c0,-1.451 -1.164,-2.626 -2.585,-2.626c-0.52,-0 -0.983,0.158 -1.387,0.42l-0.007,-0l-0.025,0.024c-0.152,0.096 -0.285,0.214 -0.403,0.343l-29.212,24.229l-2.742,-27.624l-0.028,-0c0.016,-0.108 0.034,-0.218 0.034,-0.312c-0,-1.39 -1.091,-2.5 -2.462,-2.5c-0.958,0 -1.81,0.576 -2.189,1.407l-16.025,22.622l-13.502,-36.157l-0.01,-0c-0.24,-1.124 -1.21,-1.957 -2.385,-1.957c-1.159,0 -2.137,0.833 -2.374,1.957l-13.494,36.159l-16.017,-22.58l-0.014,0.004c-0.391,-0.862 -1.224,-1.455 -2.206,-1.455c-1.363,0 -2.467,1.11 -2.467,2.5c-0,0.141 0.022,0.275 0.046,0.411l-0.024,0.011l-2.755,27.514l-29.561,-24.553c-0.419,-0.28 -0.925,-0.463 -1.479,-0.463c-1.427,-0 -2.58,1.175 -2.58,2.626c0,0.216 0.026,0.432 0.079,0.63l0,0.013l6.032,37.893l-25.09,-11.46l-0.003,0.01c-0.289,-0.111 -0.585,-0.177 -0.906,-0.177c-1.413,0 -2.576,1.179 -2.576,2.624c-0,0.382 0.096,0.744 0.217,1.063l11.224,25.405l-37.89,-6.251l-0.023,0.023c-0.086,-0.013 -0.157,-0.023 -0.236,-0.023c-1.376,-0 -2.48,1.137 -2.48,2.53c0,0.729 0.289,1.387 0.788,1.855l23.943,29.857l-27.378,2.818l-0,0.039c-1.249,0.138 -2.237,1.221 -2.237,2.538c-0,0.915 0.469,1.708 1.169,2.151l22.186,16.287l-21.873,13.63c-0.119,0.031 -0.23,0.072 -0.349,0.133l-0.089,0.033l0.04,0c-0.822,0.417 -1.387,1.286 -1.387,2.274l259.226,0Zm-215.933,-0.003l172.738,0l-0,-0.001c-0.168,-48.395 -38.776,-87.567 -86.383,-87.567c-47.581,0 -86.193,39.175 -86.355,87.568Z" style="fill:#fff;"/><path d="M114.935,181.967l168.672,0l0,-0.001c-0.164,-47.256 -37.864,-85.506 -84.35,-85.506c-46.462,0 -84.164,38.253 -84.322,85.507Z" style="fill:#fff;fill-rule:nonzero;"/></svg>