<?xml version="1.0" encoding="UTF-8" standalone="no"?><!DOCTYPE svg PUBLIC "-//W3C//DTD SVG 1.1//EN" "http://www.w3.org/Graphics/SVG/1.1/DTD/svg11.dtd"><svg width="100%" height="100%" viewBox="0 0 40 30" version="1.1" xmlns="http://www.w3.org/2000/svg" xmlns:xlink="http://www.w3.org/1999/xlink" xml:space="preserve" xmlns:serif="http://www.serif.com/" style="fill-rule:evenodd;clip-rule:evenodd;stroke-linejoin:round;stroke-miterlimit:2;"><path d="M38.744,8.335l-18.161,-8.173c-0.476,-0.216 -0.995,-0.216 -1.427,0l-18.161,8.173c-0.563,0.302 -0.995,0.865 -0.995,1.556c0,0.649 0.432,1.254 1.038,1.557l1.556,0.735l0,6.054c0,0.605 0.476,1.081 1.082,1.081c0.605,0 1.081,-0.476 1.081,-1.081l-0,-4.93l2.594,1.384l0,7.351c0,0.303 0.086,0.562 0.259,0.822c0.173,0.259 4.108,6.14 12.065,6.14c8.172,0 11.934,-5.924 12.107,-6.14c0.13,-0.216 0.26,-0.519 0.26,-0.779l-0,-7.178l6.875,-3.502c0.605,-0.303 0.951,-0.908 0.951,-1.557c-0.086,-0.648 -0.519,-1.211 -1.124,-1.513Zm-9.772,13.232c-0.865,1.037 -3.806,4.41 -9.297,4.41c-5.362,0 -8.432,-3.329 -9.297,-4.41l-0,-5.362l8.735,4.453c0.259,0.13 0.519,0.173 0.778,0.173c0.259,0 0.562,-0.043 0.822,-0.173l8.259,-4.194l-0,5.103Zm-9.02,-3.789l-15.715,-7.831l15.572,-6.962l15.683,6.914l-15.54,7.879Zm-15.195,3.01c0.302,0.303 0.518,0.779 0.518,1.211c0,0.432 -0.173,0.908 -0.518,1.211c-0.303,0.302 -0.779,0.519 -1.211,0.519c-0.433,-0 -0.908,-0.173 -1.211,-0.519c-0.303,-0.303 -0.519,-0.779 -0.519,-1.211c0,-0.432 0.173,-0.908 0.519,-1.211c0.303,-0.302 0.778,-0.519 1.211,-0.519c0.432,0 0.865,0.173 1.211,0.519Z" style="fill:#fff;fill-rule:nonzero;"/></svg>