<?xml version="1.0" encoding="UTF-8" standalone="no"?><!DOCTYPE svg PUBLIC "-//W3C//DTD SVG 1.1//EN" "http://www.w3.org/Graphics/SVG/1.1/DTD/svg11.dtd"><svg width="100%" height="100%" viewBox="0 0 175 150" version="1.1" xmlns="http://www.w3.org/2000/svg" xmlns:xlink="http://www.w3.org/1999/xlink" xml:space="preserve" xmlns:serif="http://www.serif.com/" style="fill-rule:evenodd;clip-rule:evenodd;stroke-linejoin:round;stroke-miterlimit:2;"><path d="M52.787,138.247c3.191,0 5.779,2.588 5.779,5.779c0,3.192 -2.588,5.78 -5.779,5.78l-21.808,-0c-17.05,-0 -30.979,-13.928 -30.979,-30.978l0,-66.658c0,-17.049 13.929,-30.979 30.979,-30.979l9.308,0l0,-2.687c0,-10.189 8.315,-18.504 18.503,-18.504l56.733,-0c10.187,-0 18.502,8.315 18.502,18.504l-0,2.687l9.308,0c17.05,0 30.979,13.93 30.979,30.979l0,66.658c0,17.05 -13.929,30.978 -30.979,30.978l-40.307,-0l-38.675,-31.206c-13.483,-11.507 -21.393,-28.141 -15.116,-46.241c5.567,-16.051 20.724,-27.009 37.921,-27.009c22.172,-0 40.149,17.977 40.149,40.149c-0,15.075 -8.512,28.81 -21.664,35.644c-2.831,1.472 -6.318,0.369 -7.789,-2.46c-1.472,-2.831 -0.37,-6.318 2.46,-7.789c17.269,-8.975 20.668,-32.005 7.061,-45.612c-9.853,-9.853 -25.441,-11.175 -36.775,-3.113c-4.813,3.424 -8.52,8.282 -10.481,13.938c-4.624,13.332 1.753,25.22 11.729,33.733l33.288,28.407l38.199,0c10.67,0 19.419,-8.751 19.419,-19.419l0,-66.658c0,-10.669 -8.749,-19.419 -19.419,-19.419l-20.867,0l0,-14.247c0,-3.808 -3.136,-6.945 -6.943,-6.945l-56.733,-0c-3.808,-0 -6.944,3.137 -6.944,6.945l-0,14.247l-20.867,0c-10.67,0 -19.419,8.75 -19.419,19.419l-0,66.658c-0,10.668 8.749,19.419 19.419,19.419l21.808,0Z" style="fill:#fff;"/></svg>