<?xml version="1.0" encoding="UTF-8" standalone="no"?><!DOCTYPE svg PUBLIC "-//W3C//DTD SVG 1.1//EN" "http://www.w3.org/Graphics/SVG/1.1/DTD/svg11.dtd"><svg width="100%" height="100%" viewBox="0 0 278 296" version="1.1" xmlns="http://www.w3.org/2000/svg" xmlns:xlink="http://www.w3.org/1999/xlink" xml:space="preserve" xmlns:serif="http://www.serif.com/" style="fill-rule:evenodd;clip-rule:evenodd;stroke-linejoin:round;stroke-miterlimit:2;"><path d="M277.979,197.386c-0,-0.018 -0,-0.035 -0,-0.053c-0.029,-18.096 -7.238,-35.441 -20.045,-48.228c-12.816,-12.795 -30.189,-19.976 -48.298,-19.965l-0.016,-0l-134.593,-0c3.886,-36.342 18.491,-69.389 40.465,-96.163c7.066,-8.609 5.812,-21.334 -2.796,-28.4c-8.609,-7.065 -21.335,-5.812 -28.4,2.797c-27.704,33.756 -45.802,75.681 -49.818,121.766l-14.299,-0c-11.137,-0 -20.179,9.041 -20.179,20.178c-0,11.137 9.042,20.179 20.179,20.179l14.867,0c9.889,71.375 70.503,125.797 144.777,126.005c53.453,0.149 98.313,-44.255 98.156,-98.116Zm-202.024,-27.889l133.681,0l0.017,0c7.411,-0.006 14.522,2.932 19.767,8.169c5.245,5.236 8.195,12.342 8.201,19.753l0,0.054c0.11,31.662 -26.267,57.759 -57.685,57.671c-51.843,-0.145 -94.504,-36.735 -103.981,-85.647Z" style="fill:#fff;"/></svg>