<?xml version="1.0" encoding="UTF-8" standalone="no"?><!DOCTYPE svg PUBLIC "-//W3C//DTD SVG 1.1//EN" "http://www.w3.org/Graphics/SVG/1.1/DTD/svg11.dtd"><svg width="100%" height="100%" viewBox="0 0 249 146" version="1.1" xmlns="http://www.w3.org/2000/svg" xmlns:xlink="http://www.w3.org/1999/xlink" xml:space="preserve" xmlns:serif="http://www.serif.com/" style="fill-rule:evenodd;clip-rule:evenodd;stroke-linejoin:round;stroke-miterlimit:2;"><path d="M65.912,116.191c1.249,1.784 1.9,3.616 1.9,5.514c0,1.797 -0.601,3.293 -1.837,4.472c-1.275,1.217 -2.909,1.793 -4.879,1.793c-1.358,0 -2.887,-0.38 -4.6,-1.092c-3.719,-2.675 -49.738,-37.025 -53.63,-39.723c-1.857,-1.898 -2.866,-3.82 -2.866,-5.84c-0,-2.401 1.214,-4.461 3.495,-6.262l0.01,-0.008l5.077,-4.062c2.621,-2.097 46.927,-36.671 47.661,-37.236c1.553,-0.58 2.863,-0.892 3.95,-0.892c1.957,0 3.579,0.606 4.845,1.872c1.254,1.254 1.872,2.796 1.872,4.619c-0,2.052 -0.804,4.029 -2.33,5.962c-2.526,2.08 -41.047,32.056 -43.619,34.174c-0.493,0.406 -0.773,1.016 -0.758,1.655c0.014,0.639 0.321,1.236 0.833,1.619c3.013,2.26 41.926,31.221 44.872,33.429l0.004,0.006Z" style="fill:#fff;"/><path d="M182.403,116.191c-1.25,1.784 -1.901,3.616 -1.901,5.514c0,1.797 0.602,3.293 1.837,4.472c1.275,1.217 2.91,1.793 4.88,1.793c1.358,0 2.887,-0.38 4.599,-1.092c3.72,-2.675 49.739,-37.025 53.631,-39.723c1.856,-1.898 2.866,-3.82 2.866,-5.84c-0,-2.401 -1.214,-4.461 -3.495,-6.262l-0.011,-0.008l-5.076,-4.062c-2.622,-2.097 -46.928,-36.671 -47.662,-37.236c-1.552,-0.58 -2.862,-0.892 -3.95,-0.892c-1.956,0 -3.578,0.606 -4.844,1.872c-1.254,1.254 -1.872,2.796 -1.872,4.619c-0,2.052 0.804,4.029 2.33,5.962c2.526,2.08 41.047,32.056 43.618,34.174c0.494,0.406 0.773,1.016 0.759,1.655c-0.015,0.639 -0.322,1.236 -0.833,1.619c-3.013,2.26 -41.926,31.221 -44.873,33.429l-0.003,0.006Z" style="fill:#fff;"/><path d="M156.787,2.625c3.328,1.447 4.853,5.319 3.405,8.648c-9.99,22.971 -45.621,104.9 -55.612,127.872c-1.447,3.328 -5.319,4.853 -8.648,3.405c-0.003,-0.001 -0.005,-0.002 -0.008,-0.003c-3.328,-1.448 -4.853,-5.32 -3.406,-8.648c9.991,-22.972 45.622,-104.9 55.612,-127.872c1.448,-3.329 5.32,-4.853 8.649,-3.406c0.002,0.001 0.005,0.002 0.008,0.004Z" style="fill:#fff;"/></svg>