<?xml version="1.0" encoding="UTF-8" standalone="no"?><!DOCTYPE svg PUBLIC "-//W3C//DTD SVG 1.1//EN" "http://www.w3.org/Graphics/SVG/1.1/DTD/svg11.dtd"><svg width="100%" height="100%" viewBox="0 0 1024 1024" version="1.1" xmlns="http://www.w3.org/2000/svg" xmlns:xlink="http://www.w3.org/1999/xlink" xml:space="preserve" xmlns:serif="http://www.serif.com/" style="fill-rule:evenodd;clip-rule:evenodd;stroke-linejoin:round;stroke-miterlimit:2;"><path d="M745.527,285.289c21.729,-21.616 21.729,-56.84 -0,-78.455l-79.942,-79.942l0.114,0.114c-21.157,-21.158 -57.526,-57.526 -108.991,-108.876c-24.245,-23.674 -63.473,-23.445 -87.49,0.571l-450.373,450.031c-11.633,11.554 -18.183,27.291 -18.183,43.687c0,16.397 6.55,32.133 18.183,43.688l450.259,449.916c24.011,23.969 63.48,23.969 87.49,-0l188.818,-188.704c21.73,-21.615 21.73,-56.84 0,-78.455c-21.584,-21.477 -56.985,-21.477 -78.569,-0l-142.958,143.186c-5.947,5.947 -15.21,5.947 -21.157,0l-359.681,-359.338c-5.947,-5.947 -5.947,-15.21 -0,-21.157l359.566,-359.338c0.458,-0.458 1.03,-0.801 1.487,-1.258c5.947,-4.689 14.181,-4.232 19.671,1.258l143.186,143.072c21.73,21.729 56.954,21.729 78.57,-0Zm-351.904,229.418l-0,-0c-0,66.629 54.879,121.456 121.571,121.456c66.691,0 121.571,-54.827 121.571,-121.456l-0,-0c-0,-66.629 -54.88,-121.457 -121.571,-121.457c-66.692,0 -121.571,54.828 -121.571,121.457Zm613.23,-44.146l-140.556,-139.869c-21.729,-21.615 -56.954,-21.615 -78.569,0.114c-10.43,10.384 -16.3,24.51 -16.3,39.228c-0,14.717 5.87,28.844 16.3,39.227l94.923,94.81c5.947,5.947 5.947,15.21 0,21.157l-93.551,93.437c-10.43,10.384 -16.3,24.51 -16.3,39.228c0,14.717 5.87,28.844 16.3,39.227c21.584,21.477 56.985,21.477 78.57,0l139.297,-139.183c11.574,-11.564 18.083,-27.27 18.083,-43.631c0,-16.416 -6.554,-32.172 -18.197,-43.745Z" style="fill:#fff;fill-rule:nonzero;"/></svg>