<?xml version="1.0" encoding="UTF-8" standalone="no"?><!DOCTYPE svg PUBLIC "-//W3C//DTD SVG 1.1//EN" "http://www.w3.org/Graphics/SVG/1.1/DTD/svg11.dtd"><svg width="100%" height="100%" viewBox="0 0 512 512" version="1.1" xmlns="http://www.w3.org/2000/svg" xmlns:xlink="http://www.w3.org/1999/xlink" xml:space="preserve" xmlns:serif="http://www.serif.com/" style="fill-rule:evenodd;clip-rule:evenodd;stroke-linejoin:round;stroke-miterlimit:2;"><path d="M144.332,213.607c-0.576,18.12 8.48,26.144 8.704,31.239c-0.216,2.103 -1.44,3.976 -3.28,5.016l-10.24,7.168c-1.325,0.929 -2.887,1.462 -4.504,1.536c-0.344,-0.016 -6.552,1.464 -16.383,-20.487c-12.148,15.162 -30.661,23.871 -50.087,23.559c-13.023,0.712 -48.318,-7.392 -46.503,-44.967c-1.271,-30.623 27.248,-49.646 56.743,-48.038c5.68,0.016 17.279,0.296 37.591,5.016l-0,-12.496c2.152,-21.167 -11.76,-37.591 -35.847,-35.127c-1.92,0.008 -15.52,-0.4 -36.671,8.088c-5.888,2.704 -6.64,2.256 -8.6,2.256c-5.928,-0 -3.488,-17.184 -2.352,-19.36c4.168,-5.12 28.687,-14.679 52.751,-14.543c16.083,-1.423 32.097,3.546 44.55,13.823c10.23,11.442 15.341,26.587 14.136,41.887l-0.008,55.43Zm-69.134,25.912c25.943,-0.376 36.927,-15.976 39.431,-24.376c1.968,-8.039 1.64,-13.127 1.64,-21.919c-7.736,-1.856 -18.872,-3.88 -31.647,-3.896c-12.12,-0.912 -34.255,4.504 -33.391,25.807c-0.992,13.432 8.895,25.12 23.967,24.384Zm136.732,18.439c-6.288,0.576 -9.216,-3.888 -10.144,-8.296l-39.839,-131.716c-0.776,-2.224 -1.288,-4.52 -1.536,-6.864c-0.304,-1.999 1.09,-3.894 3.088,-4.199c0.192,-0.032 -1.704,-0 17.8,-0c7.024,-0.704 9.312,4.823 10.04,8.295l28.575,112.661l26.527,-112.661c0.424,-2.576 2.352,-8.855 10.24,-8.191l13.727,-0c1.736,-0.144 8.888,-0.4 10.144,8.295l26.735,114.101l29.495,-114.101c0.384,-1.744 2.176,-9.095 10.144,-8.295l15.776,-0c0.68,-0.104 4.919,-0.648 4.199,6.863c-0.344,1.48 2.728,-8.527 -42.198,135.916c-0.92,4.408 -3.856,8.872 -10.144,8.296l-14.952,0c-8.751,0.92 -10.007,-7.728 -10.143,-8.6l-26.528,-109.7l-26.223,109.588c-0.128,0.872 -1.384,9.52 -10.143,8.6l-14.64,0l-0,0.008Zm218.778,4.504c-4.704,0.008 -27.136,-0.24 -45.887,-9.832c-3.813,-1.614 -6.287,-5.388 -6.248,-9.527l0,-8.6c0,-6.76 4.96,-5.52 7.064,-4.712c8.032,3.248 13.183,5.712 23.047,7.68c29.319,6.024 42.215,-1.84 45.375,-3.584c10.52,-6.248 11.352,-20.544 4.2,-27.959c-8.384,-7.032 -12.384,-7.296 -42.503,-16.8c-3.712,-1.032 -34.959,-10.888 -35.031,-41.887c-0.488,-22.591 20.039,-44.942 55.614,-44.758c10.136,-0.008 37.143,3.304 44.455,12.495c1.08,1.672 1.616,3.64 1.536,5.632l0,8.088c0,3.552 -1.296,5.328 -3.896,5.328c-6.168,-0.688 -17.111,-8.936 -39.327,-8.6c-5.512,-0.288 -31.911,0.728 -30.727,19.975c-0.344,15.168 21.288,20.856 23.76,21.512c29.167,8.775 38.918,10.231 50.494,23.663c13.712,17.8 6.32,38.639 3.48,44.351c-15.264,29.991 -54.734,27.551 -55.406,27.535Zm32.159,83.886c-56.023,41.374 -137.348,63.398 -206.786,63.398c-93.665,0.617 -184.249,-33.853 -253.809,-96.582c-5.224,-4.711 -0.616,-11.167 5.736,-7.575c77.18,44.149 164.581,67.351 253.496,67.294c66.403,-0.356 132.085,-13.828 193.267,-39.639c9.424,-4 17.415,6.24 8.096,13.104Zm23.351,-26.632c-7.168,-9.215 -47.423,-4.304 -65.446,-2.152c-5.432,0.616 -6.352,-4.096 -1.432,-7.575c32.055,-22.536 84.701,-16.08 90.749,-8.504c6.04,7.576 -1.64,60.326 -31.647,85.525c-4.608,3.896 -9.016,1.84 -6.968,-3.28c6.752,-16.999 21.912,-54.79 14.744,-64.014Z" style="fill:#fff;fill-rule:nonzero;"/></svg>