<?xml version="1.0" encoding="UTF-8" standalone="no"?><!DOCTYPE svg PUBLIC "-//W3C//DTD SVG 1.1//EN" "http://www.w3.org/Graphics/SVG/1.1/DTD/svg11.dtd"><svg width="100%" height="100%" viewBox="0 0 24 24" version="1.1" xmlns="http://www.w3.org/2000/svg" xmlns:xlink="http://www.w3.org/1999/xlink" xml:space="preserve" xmlns:serif="http://www.serif.com/" style="fill-rule:evenodd;clip-rule:evenodd;stroke-linejoin:round;stroke-miterlimit:2;"><path d="M4.985,2.441c-1.37,-0 -2.383,1.198 -2.337,2.498c0.043,1.249 -0.013,2.866 -0.421,4.185c-0.408,1.323 -1.099,2.161 -2.227,2.269l-0,1.214c1.128,0.108 1.819,0.946 2.227,2.269c0.408,1.319 0.464,2.936 0.421,4.185c-0.046,1.3 0.967,2.498 2.337,2.498l14.032,0c1.369,0 2.383,-1.198 2.337,-2.498c-0.043,-1.249 0.013,-2.866 0.42,-4.185c0.409,-1.323 1.098,-2.161 2.226,-2.269l0,-1.214c-1.128,-0.108 -1.817,-0.946 -2.226,-2.269c-0.407,-1.318 -0.463,-2.936 -0.42,-4.185c0.046,-1.3 -0.968,-2.498 -2.337,-2.498l-14.032,-0l-0,-0Zm11.286,11.768c0,1.79 -1.335,2.876 -3.55,2.876l-3.772,-0c-0.108,-0 -0.211,-0.043 -0.287,-0.119c-0.077,-0.077 -0.12,-0.18 -0.12,-0.288l0,-9.356c0,-0.108 0.043,-0.211 0.12,-0.288c0.076,-0.076 0.179,-0.119 0.287,-0.119l3.75,0c1.847,0 3.06,1.001 3.06,2.537c-0,1.079 -0.816,2.044 -1.855,2.213l0,0.057c1.415,0.155 2.367,1.134 2.367,2.487Zm-3.962,-6.004l-2.15,-0l-0,3.037l1.811,0c1.4,0 2.172,-0.564 2.172,-1.571c0,-0.945 -0.664,-1.466 -1.833,-1.466Zm-2.15,4.242l-0,3.348l2.229,-0c1.458,-0 2.23,-0.585 2.23,-1.684c0,-1.1 -0.793,-1.664 -2.323,-1.664l-2.136,0Z" style="fill:#fff;"/></svg>