<?xml version="1.0" encoding="UTF-8" standalone="no"?><!DOCTYPE svg PUBLIC "-//W3C//DTD SVG 1.1//EN" "http://www.w3.org/Graphics/SVG/1.1/DTD/svg11.dtd"><svg width="100%" height="100%" viewBox="0 0 24 24" version="1.1" xmlns="http://www.w3.org/2000/svg" xmlns:xlink="http://www.w3.org/1999/xlink" xml:space="preserve" xmlns:serif="http://www.serif.com/" style="fill-rule:evenodd;clip-rule:evenodd;stroke-linejoin:round;stroke-miterlimit:2;"><path d="M7.502,0l2.578,0l-0,1.078l-1.5,0l-0,1.078l1.5,0l-0,1.078l-2.578,0l-0,-3.234Z" style="fill:#fff;fill-rule:nonzero;"/><path d="M10.595,0l2.579,0l-0.001,0.938l-1.5,-0.001l0,0.188l1.5,0l0,2.156l-2.578,0l0,-0.984l1.5,-0l0,-0.188l-1.5,0l0,-2.109Z" style="fill:#fff;fill-rule:nonzero;"/><path d="M13.689,0l2.578,0l0,0.938l-1.5,-0.001l0,0.188l1.5,0l0,2.156l-2.578,0l0,-0.984l1.5,-0l0,-0.188l-1.5,0l0,-2.109Z" style="fill:#fff;fill-rule:nonzero;"/><path d="M11.991,24l-6.944,-1.928l-2.047,-17.355l18,-0l-2.046,17.353l-6.963,1.93Zm-4.944,-11.427l0.191,2.128l7.377,0l-0.247,2.761l-2.374,0.641l-0.002,0l-2.371,-0.64l-0.151,-1.697l-2.137,-0l0.298,3.342l4.361,1.21l4.366,-1.21l0.532,-5.964l0.052,-0.571l0.384,-4.309l-10.662,0l0.194,2.129l8.136,-0l-0.194,2.18l-7.753,-0Z" style="fill:#fff;"/></svg>