<?xml version="1.0" encoding="UTF-8" standalone="no"?><!DOCTYPE svg PUBLIC "-//W3C//DTD SVG 1.1//EN" "http://www.w3.org/Graphics/SVG/1.1/DTD/svg11.dtd"><svg width="100%" height="100%" viewBox="0 0 24 24" version="1.1" xmlns="http://www.w3.org/2000/svg" xmlns:xlink="http://www.w3.org/1999/xlink" xml:space="preserve" xmlns:serif="http://www.serif.com/" style="fill-rule:evenodd;clip-rule:evenodd;stroke-linejoin:round;stroke-miterlimit:2;"><path d="M13.983,11.078l2.119,0c0.049,0 0.096,-0.019 0.131,-0.054c0.035,-0.035 0.055,-0.082 0.055,-0.131l0,-1.887c0,-0.049 -0.02,-0.097 -0.055,-0.132c-0.034,-0.034 -0.082,-0.054 -0.131,-0.054l-2.119,-0c-0.049,-0 -0.096,0.019 -0.131,0.054c-0.034,0.035 -0.054,0.082 -0.054,0.131l0,1.888c0,0.102 0.083,0.185 0.185,0.185Zm-2.954,-5.43l2.118,-0c0.049,-0 0.097,-0.02 0.131,-0.054c0.035,-0.035 0.055,-0.083 0.055,-0.132l0,-1.888c-0,-0.049 -0.02,-0.096 -0.055,-0.131c-0.035,-0.035 -0.082,-0.054 -0.131,-0.054l-2.118,-0c-0.049,-0 -0.096,0.019 -0.131,0.054c-0.034,0.035 -0.054,0.082 -0.054,0.131l0,1.888c0,0.102 0.082,0.185 0.185,0.185l0,0.001Zm0,2.715l2.118,-0c0.049,-0 0.096,-0.02 0.131,-0.055c0.035,-0.035 0.055,-0.082 0.055,-0.131l0,-1.887c-0,-0.049 -0.02,-0.096 -0.055,-0.131c-0.035,-0.035 -0.082,-0.054 -0.131,-0.054l-2.118,-0c-0.049,-0 -0.096,0.019 -0.131,0.054c-0.034,0.035 -0.054,0.082 -0.054,0.131l0,1.887c0,0.102 0.082,0.185 0.185,0.186Zm-2.93,-0l2.12,-0c0.049,-0.001 0.096,-0.02 0.13,-0.055c0.035,-0.035 0.054,-0.082 0.054,-0.131l-0,-1.887c-0,-0.049 -0.02,-0.096 -0.054,-0.131c-0.035,-0.035 -0.082,-0.054 -0.131,-0.054l-2.118,-0c-0.049,-0 -0.096,0.019 -0.131,0.054c-0.034,0.035 -0.054,0.082 -0.054,0.131l0,1.887c0,0.102 0.083,0.185 0.185,0.186l-0.001,-0Zm-2.963,-0l2.119,-0c0.049,-0 0.096,-0.02 0.131,-0.055c0.035,-0.035 0.054,-0.082 0.054,-0.131l0,-1.887c0,-0.049 -0.019,-0.096 -0.054,-0.131c-0.035,-0.035 -0.082,-0.054 -0.131,-0.054l-2.119,-0c-0.049,-0 -0.096,0.019 -0.131,0.054c-0.035,0.035 -0.055,0.082 -0.055,0.131l0,1.887c0,0.102 0.084,0.185 0.186,0.186Zm5.893,2.715l2.118,0c0.049,0 0.096,-0.019 0.131,-0.054c0.035,-0.035 0.055,-0.082 0.055,-0.131l-0,-1.887c-0,-0.049 -0.02,-0.097 -0.055,-0.132c-0.034,-0.034 -0.082,-0.054 -0.131,-0.054l-2.118,-0c-0.049,-0 -0.096,0.019 -0.131,0.054c-0.035,0.035 -0.054,0.082 -0.054,0.131l-0,1.888c-0,0.102 0.082,0.185 0.185,0.185Zm-2.93,0l2.12,0c0.049,-0 0.096,-0.02 0.13,-0.055c0.035,-0.034 0.054,-0.081 0.054,-0.13l-0,-1.887c0,-0.024 -0.005,-0.048 -0.014,-0.071c-0.009,-0.022 -0.022,-0.043 -0.04,-0.06c-0.017,-0.017 -0.037,-0.031 -0.059,-0.041c-0.023,-0.009 -0.047,-0.014 -0.071,-0.014l-2.12,-0c-0.049,0 -0.096,0.02 -0.13,0.055c-0.035,0.034 -0.054,0.081 -0.054,0.13l0,1.888c0,0.102 0.083,0.185 0.185,0.185l-0.001,0Zm-2.963,0l2.119,0c0.049,0 0.096,-0.019 0.131,-0.054c0.035,-0.035 0.054,-0.082 0.054,-0.131l0,-1.887c0,-0.024 -0.005,-0.048 -0.014,-0.071c-0.009,-0.022 -0.022,-0.043 -0.039,-0.06c-0.018,-0.017 -0.038,-0.031 -0.06,-0.041c-0.023,-0.009 -0.047,-0.014 -0.071,-0.014l-2.12,-0c-0.049,-0 -0.097,0.02 -0.132,0.054c-0.034,0.035 -0.054,0.083 -0.054,0.132l0,1.887c0,0.102 0.084,0.185 0.186,0.185Zm-2.92,0l2.12,0c0.049,-0 0.096,-0.02 0.13,-0.055c0.035,-0.034 0.054,-0.081 0.054,-0.13l0,-1.887c0,-0.024 -0.005,-0.048 -0.014,-0.071c-0.009,-0.022 -0.022,-0.043 -0.039,-0.06c-0.018,-0.017 -0.038,-0.031 -0.06,-0.041c-0.023,-0.009 -0.047,-0.014 -0.071,-0.014l-2.12,-0c-0.049,0 -0.096,0.02 -0.13,0.055c-0.035,0.034 -0.054,0.081 -0.054,0.13l0,1.888c0,0.102 0.082,0.185 0.185,0.185l-0.001,0Zm21.547,-1.188c-0.065,-0.051 -0.672,-0.51 -1.954,-0.51c-0.338,0.001 -0.676,0.03 -1.01,0.087c-0.248,-1.7 -1.653,-2.53 -1.716,-2.566l-0.344,-0.199l-0.226,0.327c-0.284,0.438 -0.49,0.922 -0.612,1.43c-0.23,0.97 -0.09,1.882 0.403,2.661c-0.595,0.332 -1.55,0.413 -1.744,0.42l-15.809,0c-0.198,0 -0.389,0.079 -0.529,0.219c-0.141,0.14 -0.22,0.331 -0.221,0.529c-0.019,1.385 0.216,2.761 0.692,4.062c0.545,1.428 1.355,2.48 2.41,3.124c1.18,0.723 3.1,1.137 5.275,1.137c0.983,0.003 1.963,-0.086 2.93,-0.266c1.343,-0.247 2.635,-0.716 3.823,-1.389c0.98,-0.567 1.86,-1.288 2.61,-2.136c1.252,-1.418 1.998,-2.997 2.553,-4.4l0.221,0c1.372,0 2.215,-0.549 2.68,-1.009c0.309,-0.293 0.55,-0.65 0.707,-1.046l0.098,-0.288l-0.237,-0.187Z" style="fill:#fff;fill-rule:nonzero;"/></svg>