<?xml version="1.0" encoding="UTF-8" standalone="no"?><!DOCTYPE svg PUBLIC "-//W3C//DTD SVG 1.1//EN" "http://www.w3.org/Graphics/SVG/1.1/DTD/svg11.dtd"><svg width="100%" height="100%" viewBox="0 0 512 512" version="1.1" xmlns="http://www.w3.org/2000/svg" xmlns:xlink="http://www.w3.org/1999/xlink" xml:space="preserve" xmlns:serif="http://www.serif.com/" style="fill-rule:evenodd;clip-rule:evenodd;stroke-linejoin:round;stroke-miterlimit:2;"><path d="M78.023,95.792c-0,-52.904 42.888,-95.792 95.793,-95.792l164.368,-0c52.905,-0 95.793,42.888 95.793,95.792c0,33.5 -17.196,62.984 -43.243,80.105c26.047,17.122 43.243,46.605 43.243,80.105c0,52.905 -42.888,95.793 -95.793,95.793l-2.08,-0c-24.802,-0 -47.403,-9.426 -64.415,-24.891l0,88.263c0,53.61 -44.009,96.833 -97.357,96.833c-52.773,0 -96.309,-42.757 -96.309,-95.793c-0,-33.498 17.194,-62.98 43.239,-80.102c-26.045,-17.122 -43.239,-46.605 -43.239,-80.103c-0,-33.5 17.196,-62.983 43.242,-80.105c-26.046,-17.121 -43.242,-46.605 -43.242,-80.105Zm162.288,95.795l-66.495,-0c-35.576,-0 -64.415,28.84 -64.415,64.415c-0,35.438 28.617,64.192 64.003,64.414c0.137,-0.001 0.274,-0.001 0.412,-0.001l66.495,-0l0,-128.828Zm31.378,64.415c0,35.575 28.839,64.415 64.415,64.415l2.08,-0c35.576,-0 64.415,-28.84 64.415,-64.415c0,-35.575 -28.839,-64.415 -64.415,-64.415l-2.08,-0c-35.576,-0 -64.415,28.84 -64.415,64.415Zm-97.873,95.793c-0.138,-0 -0.275,-0.001 -0.412,-0.001c-35.386,0.221 -64.003,28.975 -64.003,64.413c-0,35.445 29.224,64.415 64.931,64.415c36.282,-0 65.979,-29.436 65.979,-65.455l0,-63.372l-66.495,-0Zm0,-320.417c-35.576,-0 -64.415,28.839 -64.415,64.414c-0,35.576 28.839,64.415 64.415,64.415l66.495,-0l0,-128.829l-66.495,-0Zm97.873,128.829l66.495,-0c35.576,-0 64.415,-28.839 64.415,-64.415c0,-35.575 -28.839,-64.414 -64.415,-64.414l-66.495,-0l0,128.829Z" style="fill:#fff;fill-rule:nonzero;"/></svg>