<?xml version="1.0" encoding="UTF-8" standalone="no"?><!DOCTYPE svg PUBLIC "-//W3C//DTD SVG 1.1//EN" "http://www.w3.org/Graphics/SVG/1.1/DTD/svg11.dtd"><svg width="100%" height="100%" viewBox="0 0 16 16" version="1.1" xmlns="http://www.w3.org/2000/svg" xmlns:xlink="http://www.w3.org/1999/xlink" xml:space="preserve" xmlns:serif="http://www.serif.com/" style="fill-rule:evenodd;clip-rule:evenodd;stroke-linejoin:round;stroke-miterlimit:2;"><path d="M15.698,7.287l-6.986,-6.985c-0.193,-0.193 -0.455,-0.302 -0.729,-0.302c-0.273,0 -0.535,0.109 -0.728,0.302l-1.45,1.45l1.84,1.84c0.127,-0.043 0.261,-0.066 0.395,-0.066c0.671,0 1.223,0.552 1.223,1.223c0,0.137 -0.023,0.274 -0.068,0.403l1.773,1.774c0.131,-0.046 0.268,-0.069 0.407,-0.069c0.671,-0 1.224,0.552 1.224,1.224c-0,0.326 -0.131,0.64 -0.364,0.87c-0.23,0.231 -0.543,0.362 -0.87,0.362c-0.672,-0 -1.226,-0.554 -1.226,-1.226c0,-0.161 0.032,-0.321 0.094,-0.47l-1.653,-1.654l0,4.353c0.417,0.206 0.682,0.633 0.682,1.099c0,0.672 -0.553,1.226 -1.226,1.226c-0.672,-0 -1.226,-0.554 -1.226,-1.226c0,-0.497 0.302,-0.947 0.762,-1.135l0,-4.393c-0.459,-0.188 -0.761,-0.638 -0.761,-1.134c-0,-0.163 0.032,-0.324 0.095,-0.474l-1.813,-1.814l-4.79,4.79c-0.193,0.193 -0.302,0.455 -0.302,0.729c0,0.273 0.109,0.535 0.302,0.728l6.986,6.986c0.193,0.193 0.455,0.302 0.729,0.302c0.273,-0 0.535,-0.109 0.728,-0.302l6.953,-6.953c0.399,-0.4 0.399,-1.057 0,-1.457" style="fill:#fff;fill-rule:nonzero;"/></svg>