<?xml version="1.0" encoding="UTF-8" standalone="no"?><!DOCTYPE svg PUBLIC "-//W3C//DTD SVG 1.1//EN" "http://www.w3.org/Graphics/SVG/1.1/DTD/svg11.dtd"><svg width="100%" height="100%" viewBox="0 0 24 24" version="1.1" xmlns="http://www.w3.org/2000/svg" xmlns:xlink="http://www.w3.org/1999/xlink" xml:space="preserve" xmlns:serif="http://www.serif.com/" style="fill-rule:evenodd;clip-rule:evenodd;stroke-linejoin:round;stroke-miterlimit:2;"><path d="M5.081,0l1.081,0l0,1.069l0.99,-0l-0,-1.069l1.082,0l-0,3.236l-1.082,0l-0,-1.083l-0.99,-0l0,1.083l-1.081,0l-0,-3.236Z" style="fill:#fff;fill-rule:nonzero;"/><path d="M9.656,1.073l-0.952,0l-0,-1.073l2.987,0l-0,1.073l-0.953,0l-0,2.163l-1.082,0l0,-2.163Z" style="fill:#fff;fill-rule:nonzero;"/><path d="M12.165,0l1.128,0l0.694,1.137l0.693,-1.137l1.128,0l0,3.236l-1.077,0l-0,-1.604l-0.744,1.151l-0.019,0l-0.745,-1.151l0,1.604l-1.058,0l-0,-3.236Z" style="fill:#fff;fill-rule:nonzero;"/><path d="M16.346,0l1.083,0l-0,2.167l1.521,-0l-0,1.069l-2.604,0l0,-3.236Z" style="fill:#fff;fill-rule:nonzero;"/><path d="M5.046,22.072l-2.046,-17.355l18,-0l-2.047,17.353l-6.963,1.93l-6.944,-1.928Zm4.137,-9.499l-0.194,-2.18l8.145,-0l0.191,-2.129l-10.662,0l0.574,6.437l7.377,0l-0.247,2.761l-2.374,0.641l-0.002,0l-2.371,-0.64l-0.151,-1.697l-2.137,-0l0.298,3.342l4.361,1.21l4.366,-1.21l0.532,-5.964l0.052,-0.571l-7.758,-0Z" style="fill:#fff;"/></svg>