<?xml version="1.0" encoding="UTF-8" standalone="no"?><!DOCTYPE svg PUBLIC "-//W3C//DTD SVG 1.1//EN" "http://www.w3.org/Graphics/SVG/1.1/DTD/svg11.dtd"><svg width="100%" height="100%" viewBox="0 0 500 500" version="1.1" xmlns="http://www.w3.org/2000/svg" xmlns:xlink="http://www.w3.org/1999/xlink" xml:space="preserve" xmlns:serif="http://www.serif.com/" style="fill-rule:evenodd;clip-rule:evenodd;stroke-linejoin:round;stroke-miterlimit:2;"><path d="M0,0l0,500l500,0l0,-500l-500,0Zm267.857,388.393c0,48.672 -28.75,72.399 -70.368,72.399c-37.589,0 -59.409,-19.464 -70.48,-42.957l38.259,-23.159c7.377,13.092 12.98,24.163 29.085,24.163c13.393,0 24.397,-6.038 24.397,-29.531l-0,-157.165l49.107,-0l0,156.25Zm110.882,71.283c-43.627,0 -71.819,-19.687 -85.581,-46.875l38.315,-22.176c10.045,16.451 23.159,27.411 46.317,27.411c19.464,-0 30.77,-8.616 30.77,-22.043c0,-16.105 -11.64,-21.808 -33.125,-31.25l-11.741,-5.044c-33.906,-14.42 -56.384,-32.545 -56.384,-70.815c0,-35.234 26.842,-60.971 68.795,-60.971c29.877,-0 51.339,9.286 66.797,36.473l-36.652,23.56c-8.058,-14.43 -16.741,-20.089 -30.201,-20.089c-13.761,0 -22.489,8.728 -22.489,20.089c0,14.096 8.728,19.8 28.862,28.527l11.741,5.034c39.944,17.12 62.433,34.598 62.433,73.839c0.011,42.299 -33.214,64.33 -77.857,64.33Z" style="fill:#fff;fill-rule:nonzero;"/></svg>