<?xml version="1.0" encoding="UTF-8" standalone="no"?><!DOCTYPE svg PUBLIC "-//W3C//DTD SVG 1.1//EN" "http://www.w3.org/Graphics/SVG/1.1/DTD/svg11.dtd"><svg width="100%" height="100%" viewBox="0 0 500 500" version="1.1" xmlns="http://www.w3.org/2000/svg" xmlns:xlink="http://www.w3.org/1999/xlink" xml:space="preserve" xmlns:serif="http://www.serif.com/" style="fill-rule:evenodd;clip-rule:evenodd;stroke-linejoin:round;stroke-miterlimit:2;"><path d="M246.899,369.792c-0,-0 -0,-172.73 5.729,-172.709c4.437,-0 10.208,222.812 10.208,222.812c-7.937,-0.938 -15.937,-36.667 -15.937,-50.104l-0,0.001Zm111.165,-170.73c-15.319,-66.959 -48.888,-124.519 -95.156,-168.955l-0.113,-0.108c-5.639,-8.601 -10.783,-18.479 -14.916,-28.868l-0.397,-1.131c0.014,0.339 0.021,0.737 0.021,1.137c-0,9.413 -4.22,17.84 -10.873,23.493l-0.044,0.036c-59.578,50.584 -97.492,125.117 -98.747,208.536l-0.003,0.215c-0.014,1.03 -0.023,2.245 -0.023,3.464c-0,82.643 39.761,155.999 101.199,201.981l0.658,0.471l1.459,1.042c2.681,19.828 4.973,39.703 6.874,59.625l10.021,0c2.772,-24.858 6.508,-46.621 11.394,-67.947l-0.769,3.989c6.597,-4.591 12.377,-9.334 17.761,-14.489l-0.053,0.051c46.698,-43.295 75.83,-104.971 75.83,-173.452c0,-1.013 -0.006,-2.025 -0.019,-3.034l0.002,0.153c-0.049,-16.362 -1.54,-32.341 -4.353,-47.861l0.249,1.653l-0.002,-0.001Z" style="fill:#fff;fill-rule:nonzero;"/></svg>