<?xml version="1.0" encoding="UTF-8" standalone="no"?><!DOCTYPE svg PUBLIC "-//W3C//DTD SVG 1.1//EN" "http://www.w3.org/Graphics/SVG/1.1/DTD/svg11.dtd"><svg width="100%" height="100%" viewBox="0 0 24 24" version="1.1" xmlns="http://www.w3.org/2000/svg" xmlns:xlink="http://www.w3.org/1999/xlink" xml:space="preserve" xmlns:serif="http://www.serif.com/" style="fill-rule:evenodd;clip-rule:evenodd;stroke-linejoin:round;stroke-miterlimit:2;"><path d="M16.405,5.121c-0.115,-0 -0.193,0.014 -0.274,0.033l0,0.013l0.014,-0c0.054,0.104 0.146,0.18 0.214,0.273c0.054,0.107 0.1,0.214 0.154,0.32l0.014,-0.015c0.094,-0.066 0.14,-0.172 0.14,-0.333c-0.04,-0.047 -0.046,-0.094 -0.08,-0.14c-0.04,-0.067 -0.126,-0.1 -0.18,-0.153l-0.002,0.002Zm-10.632,13.194l-0.93,-0c-0.03,-1.562 -0.123,-3.03 -0.27,-4.41l-0.008,-0l-1.41,4.41l-0.705,-0l-1.4,-4.41l-0.01,-0c-0.103,1.323 -0.168,2.793 -0.195,4.41l-0.845,-0c0.055,-1.966 0.192,-3.81 0.41,-5.53l1.15,-0l1.335,4.064l0.008,-0l1.347,-4.064l1.095,-0c0.242,2.015 0.384,3.86 0.428,5.53Zm4.014,-4.08c-0.378,2.045 -0.876,3.533 -1.492,4.46c-0.482,0.716 -1.01,1.073 -1.583,1.073c-0.153,-0 -0.34,-0.046 -0.566,-0.138l-0,-0.494c0.11,0.017 0.24,0.026 0.386,0.026c0.268,-0 0.483,-0.075 0.647,-0.222c0.197,-0.18 0.295,-0.382 0.295,-0.605c-0,-0.155 -0.077,-0.47 -0.23,-0.944l-1.014,-3.156l0.91,-0l0.727,2.36c0.164,0.536 0.233,0.91 0.205,1.123c0.4,-1.064 0.678,-2.227 0.835,-3.483l0.88,-0Zm12.325,4.08l-2.63,-0l-0,-5.53l0.885,-0l-0,4.85l1.745,-0l-0,0.68Zm-3.32,0.135l-1.016,-0.5c0.09,-0.076 0.177,-0.158 0.255,-0.25c0.433,-0.506 0.648,-1.258 0.648,-2.253c0,-1.83 -0.718,-2.746 -2.155,-2.746c-0.704,-0 -1.254,0.232 -1.65,0.697c-0.43,0.508 -0.646,1.256 -0.646,2.245c0,0.972 0.19,1.686 0.574,2.14c0.35,0.41 0.877,0.615 1.583,0.615c0.264,-0 0.506,-0.033 0.725,-0.098l1.325,0.772l0.36,-0.622l-0.003,-0Zm-3.292,-1.242c-0.225,-0.36 -0.337,-0.94 -0.337,-1.736c0,-1.393 0.424,-2.09 1.27,-2.09c0.443,-0 0.77,0.167 0.977,0.5c0.224,0.362 0.336,0.936 0.336,1.723c0,1.404 -0.424,2.108 -1.27,2.108c-0.445,-0 -0.77,-0.167 -0.978,-0.5l0.002,-0.005Zm-1.658,-0.425c0,0.47 -0.172,0.856 -0.516,1.156c-0.344,0.3 -0.803,0.45 -1.384,0.45c-0.543,-0 -1.064,-0.172 -1.573,-0.515l0.237,-0.476c0.438,0.22 0.833,0.328 1.19,0.328c0.332,-0 0.593,-0.073 0.783,-0.22c0.188,-0.147 0.3,-0.354 0.3,-0.615c0,-0.33 -0.23,-0.61 -0.648,-0.845c-0.388,-0.213 -1.163,-0.657 -1.163,-0.657c-0.422,-0.307 -0.632,-0.636 -0.632,-1.177c0,-0.45 0.157,-0.81 0.47,-1.085c0.315,-0.278 0.72,-0.415 1.22,-0.415c0.512,-0 0.98,0.136 1.4,0.41l-0.213,0.476c-0.36,-0.152 -0.715,-0.23 -1.064,-0.23c-0.283,-0 -0.502,0.068 -0.654,0.206c-0.153,0.136 -0.248,0.31 -0.248,0.524c0,0.328 0.234,0.61 0.666,0.85c0.393,0.215 1.187,0.67 1.187,0.67c0.433,0.305 0.648,0.63 0.648,1.168l-0.006,-0.003Zm9.382,-5.852c-0.535,-0.014 -0.95,0.04 -1.297,0.188c-0.1,0.04 -0.26,0.04 -0.274,0.167c0.055,0.053 0.063,0.14 0.11,0.214c0.08,0.134 0.218,0.313 0.346,0.407c0.14,0.11 0.28,0.216 0.427,0.31c0.26,0.16 0.555,0.255 0.81,0.416c0.145,0.094 0.293,0.213 0.44,0.313c0.073,0.05 0.12,0.14 0.214,0.172l-0,-0.02c-0.046,-0.06 -0.06,-0.147 -0.105,-0.214c-0.067,-0.067 -0.134,-0.127 -0.2,-0.193c-0.194,-0.26 -0.435,-0.487 -0.695,-0.675c-0.214,-0.146 -0.682,-0.35 -0.77,-0.595l-0.013,-0.014c0.146,-0.013 0.32,-0.066 0.46,-0.106c0.227,-0.06 0.435,-0.047 0.67,-0.106c0.106,-0.027 0.213,-0.06 0.32,-0.094l-0,-0.06c-0.12,-0.12 -0.21,-0.283 -0.334,-0.395c-0.34,-0.295 -0.717,-0.582 -1.104,-0.823c-0.21,-0.134 -0.476,-0.22 -0.697,-0.334c-0.08,-0.04 -0.214,-0.06 -0.26,-0.127c-0.12,-0.146 -0.19,-0.34 -0.275,-0.514c-0.192,-0.368 -0.38,-0.775 -0.547,-1.163c-0.12,-0.262 -0.193,-0.523 -0.34,-0.763c-0.69,-1.137 -1.437,-1.826 -2.586,-2.5c-0.247,-0.14 -0.543,-0.2 -0.856,-0.274c-0.167,-0.008 -0.334,-0.02 -0.5,-0.027c-0.11,-0.047 -0.216,-0.174 -0.31,-0.235c-0.38,-0.24 -1.364,-0.76 -1.644,-0.072c-0.18,0.434 0.267,0.862 0.422,1.082c0.115,0.153 0.26,0.328 0.34,0.5c0.047,0.116 0.06,0.235 0.107,0.356c0.106,0.294 0.207,0.622 0.347,0.897c0.073,0.14 0.153,0.287 0.247,0.413c0.054,0.073 0.146,0.107 0.167,0.227c-0.094,0.136 -0.1,0.334 -0.154,0.5c-0.24,0.757 -0.146,1.693 0.194,2.25c0.107,0.166 0.362,0.534 0.703,0.393c0.3,-0.12 0.234,-0.5 0.32,-0.835c0.02,-0.08 0.007,-0.133 0.048,-0.187l-0,0.015c0.094,0.188 0.188,0.367 0.274,0.555c0.206,0.328 0.566,0.668 0.867,0.895c0.16,0.12 0.287,0.328 0.487,0.402l-0,-0.02l-0.015,-0c-0.043,-0.058 -0.1,-0.086 -0.154,-0.133c-0.12,-0.12 -0.255,-0.267 -0.35,-0.4c-0.28,-0.377 -0.527,-0.79 -0.747,-1.218c-0.11,-0.21 -0.202,-0.436 -0.29,-0.643c-0.04,-0.08 -0.04,-0.2 -0.107,-0.24c-0.1,0.146 -0.247,0.273 -0.32,0.453c-0.127,0.288 -0.14,0.642 -0.188,1.01c-0.027,0.007 -0.014,-0 -0.027,0.014c-0.214,-0.052 -0.287,-0.274 -0.367,-0.46c-0.2,-0.475 -0.233,-1.238 -0.06,-1.785c0.047,-0.14 0.247,-0.582 0.167,-0.716c-0.042,-0.127 -0.174,-0.2 -0.247,-0.303c-0.087,-0.124 -0.18,-0.285 -0.24,-0.427c-0.16,-0.374 -0.24,-0.788 -0.414,-1.162c-0.08,-0.173 -0.22,-0.354 -0.334,-0.513c-0.127,-0.18 -0.267,-0.307 -0.368,-0.52c-0.033,-0.073 -0.08,-0.194 -0.027,-0.274c0.014,-0.054 0.042,-0.075 0.094,-0.09c0.088,-0.072 0.335,0.022 0.422,0.062c0.247,0.1 0.455,0.194 0.662,0.334c0.094,0.066 0.195,0.193 0.315,0.226l0.14,-0c0.214,0.047 0.455,0.014 0.655,0.073c0.355,0.114 0.675,0.28 0.962,0.46c0.876,0.556 1.596,1.345 2.085,2.286c0.08,0.154 0.115,0.295 0.188,0.455c0.14,0.33 0.313,0.663 0.455,0.982c0.14,0.315 0.275,0.636 0.476,0.897c0.1,0.14 0.502,0.213 0.682,0.286c0.133,0.06 0.34,0.115 0.46,0.188c0.23,0.14 0.454,0.3 0.67,0.454c0.11,0.076 0.443,0.243 0.463,0.378Z" style="fill:#fff;fill-rule:nonzero;"/></svg>