<?xml version="1.0" encoding="UTF-8" standalone="no"?><!DOCTYPE svg PUBLIC "-//W3C//DTD SVG 1.1//EN" "http://www.w3.org/Graphics/SVG/1.1/DTD/svg11.dtd"><svg width="100%" height="100%" viewBox="0 0 512 512" version="1.1" xmlns="http://www.w3.org/2000/svg" xmlns:xlink="http://www.w3.org/1999/xlink" xml:space="preserve" xmlns:serif="http://www.serif.com/" style="fill-rule:evenodd;clip-rule:evenodd;stroke-linejoin:round;stroke-miterlimit:2;"><path d="M302.132,73.922c-9.305,-14.646 -6.329,-24.304 -1.194,-34.275c4.597,-8.926 6.475,-24.438 -9.768,-36.645c14.955,-5.505 38.554,4.228 38.96,22.055c-8.678,11.941 -32.382,16.685 -27.998,48.865Zm107.371,329.114c-7.261,23.534 -3.95,36.056 -35.526,84.919c55.829,-37.688 82.17,-86.349 90.863,-141.576c5.458,23.029 5.974,43.918 3.83,63.656c46.264,-60.907 77.963,-183.728 -28.659,-307.189c-4.289,54.572 -57.068,97.542 -117.937,80.693c104.366,-11.505 111.055,-144.215 21.395,-174.858c1.751,36.92 -48.622,24.83 -33.808,74.222c-51.308,-29.029 -163.409,-34.995 -207.974,9.046c-22.974,22.704 -38.656,41.481 -67.369,42.722c-23.707,1.024 -55.013,39.494 -14.281,59.168c3.89,16.395 17.562,25.73 25.489,27.339c-1.972,29.195 4.239,14.309 13.339,1.584c-3.058,36.905 1.982,23.61 16.244,4.623c120.67,-24.404 187.311,74.003 188.065,134.445c-0.53,-10.966 -18.061,-23.72 -27.338,-20.207c-6.268,13.28 -13.098,24.551 -21.527,30.112c0.881,-8.805 0.279,-17.609 -1.321,-26.414c-2.778,10.647 -8.012,21.703 -16.376,33.281c-16.638,0.929 -39.923,-11.446 -33.149,-31.96c9.554,-19.95 -9.187,-24.098 -24.285,-18.387c-11.345,4.292 -19.012,16.178 -20.061,19.874c-3.784,13.331 -2.539,43.094 23.347,62.83c-6.786,1.25 -13.753,2.364 -18.489,5.151c44.032,26.63 88.977,17.632 114.005,7.583c40.978,-16.453 69.241,-61.994 73.663,-97.125c11.374,49.414 -9.003,104.332 -54.678,133.785c13.049,1.382 38.593,-7.459 64.713,-16.772c-19.746,24.85 -43.349,48.414 -82.014,66.958c76.158,-6.379 131.863,-44.618 169.839,-107.503" style="fill:#fff;fill-rule:nonzero;"/></svg>