<?xml version="1.0" encoding="UTF-8" standalone="no"?><!DOCTYPE svg PUBLIC "-//W3C//DTD SVG 1.1//EN" "http://www.w3.org/Graphics/SVG/1.1/DTD/svg11.dtd"><svg width="100%" height="100%" viewBox="0 0 1000 1000" version="1.1" xmlns="http://www.w3.org/2000/svg" xmlns:xlink="http://www.w3.org/1999/xlink" xml:space="preserve" xmlns:serif="http://www.serif.com/" style="fill-rule:evenodd;clip-rule:evenodd;stroke-linejoin:round;stroke-miterlimit:2;"><path d="M467.253,0.269c-2.15,0.196 -8.993,0.88 -15.151,1.368c-142.034,12.804 -275.074,89.43 -359.336,207.204c-46.92,65.484 -76.93,139.764 -88.269,218.443c-4.008,27.464 -4.497,35.576 -4.497,72.814c0,37.238 0.489,45.35 4.497,72.814c27.175,187.754 160.801,345.502 342.033,403.949c32.453,10.458 66.666,17.592 105.572,21.893c15.151,1.666 80.645,1.666 95.796,-0c67.156,-7.428 124.047,-24.044 180.157,-52.681c8.602,-4.398 10.264,-5.571 9.091,-6.548c-0.782,-0.586 -37.439,-49.748 -81.428,-109.173l-79.96,-107.999l-100.196,-148.268c-55.132,-81.513 -100.489,-148.17 -100.88,-148.17c-0.391,-0.097 -0.782,65.778 -0.977,146.215c-0.293,140.84 -0.391,146.509 -2.151,149.832c-2.541,4.789 -4.496,6.744 -8.602,8.894c-3.128,1.564 -5.865,1.857 -20.625,1.857l-16.912,-0l-4.496,-2.835c-2.933,-1.857 -5.083,-4.3 -6.549,-7.134l-2.053,-4.399l0.195,-195.963l0.293,-196.061l3.031,-3.812c1.564,-2.052 4.887,-4.691 7.233,-5.962c4.008,-1.955 5.572,-2.15 22.483,-2.15c19.942,-0 23.265,0.782 28.446,6.451c1.466,1.563 55.719,83.272 120.626,181.693c64.907,98.422 153.665,232.811 197.263,298.783l79.178,119.924l4.008,-2.639c35.484,-23.066 73.021,-55.906 102.737,-90.114c63.246,-72.618 104.008,-161.169 117.693,-255.583c4.008,-27.464 4.497,-35.576 4.497,-72.814c0,-37.238 -0.489,-45.35 -4.497,-72.814c-27.175,-187.754 -160.801,-345.502 -342.033,-403.949c-31.965,-10.36 -65.982,-17.495 -104.105,-21.795c-9.385,-0.978 -73.998,-2.053 -82.112,-1.271Zm204.692,302.399c4.692,2.346 8.505,6.842 9.873,11.533c0.782,2.542 0.978,56.884 0.782,179.348l-0.293,175.732l-30.987,-47.5l-31.085,-47.5l-0,-127.743c-0,-82.588 0.391,-129.013 0.977,-131.261c1.564,-5.474 4.985,-9.774 9.678,-12.315c4.007,-2.053 5.474,-2.248 20.821,-2.248c14.467,0 17.008,0.195 20.234,1.954Z" style="fill:#fff;fill-rule:nonzero;"/></svg>