<?xml version="1.0" encoding="UTF-8" standalone="no"?><!DOCTYPE svg PUBLIC "-//W3C//DTD SVG 1.1//EN" "http://www.w3.org/Graphics/SVG/1.1/DTD/svg11.dtd"><svg width="100%" height="100%" viewBox="0 0 24 24" version="1.1" xmlns="http://www.w3.org/2000/svg" xmlns:xlink="http://www.w3.org/1999/xlink" xml:space="preserve" xmlns:serif="http://www.serif.com/" style="fill-rule:evenodd;clip-rule:evenodd;stroke-linejoin:round;stroke-miterlimit:2;"><path d="M12,23.956c-0.342,-0 -0.661,-0.089 -0.957,-0.243l-3.029,-1.738c-0.455,-0.242 -0.227,-0.33 -0.091,-0.374c0.615,-0.198 0.729,-0.242 1.367,-0.595c0.068,-0.044 0.159,-0.022 0.228,0.022l2.323,1.343c0.091,0.044 0.205,0.044 0.273,-0l9.087,-5.084c0.091,-0.044 0.136,-0.132 0.136,-0.242l0,-10.146c0,-0.11 -0.045,-0.198 -0.136,-0.242l-9.087,-5.061c-0.091,-0.044 -0.205,-0.044 -0.273,-0l-9.087,5.061c-0.091,0.044 -0.137,0.154 -0.137,0.242l-0,10.146c-0,0.088 0.046,0.198 0.137,0.242l2.482,1.387c1.344,0.66 2.186,-0.11 2.186,-0.881l0,-10.013c0,-0.132 0.114,-0.264 0.274,-0.264l1.161,-0c0.137,-0 0.273,0.11 0.273,0.264l0,10.013c0,1.739 -0.979,2.751 -2.687,2.751c-0.524,0 -0.934,0 -2.095,-0.55l-2.391,-1.32c-0.593,-0.331 -0.957,-0.947 -0.957,-1.607l-0,-10.146c-0,-0.66 0.364,-1.276 0.957,-1.606l9.086,-5.084c0.57,-0.308 1.344,-0.308 1.913,0l9.088,5.084c0.592,0.33 0.956,0.946 0.956,1.606l-0,10.146c-0,0.66 -0.364,1.276 -0.957,1.607l-9.087,5.083c-0.296,0.132 -0.637,0.198 -0.956,0.198Zm2.801,-6.976c-3.985,-0 -4.805,-1.761 -4.805,-3.257c-0,-0.132 0.114,-0.264 0.273,-0.264l1.184,-0c0.137,-0 0.251,0.088 0.251,0.22c0.182,1.166 0.706,1.738 3.12,1.738c1.913,0 2.733,-0.418 2.733,-1.408c-0,-0.572 -0.228,-0.99 -3.211,-1.277c-2.483,-0.242 -4.031,-0.77 -4.031,-2.684c-0,-1.783 1.548,-2.839 4.145,-2.839c2.915,-0 4.349,0.968 4.532,3.081c-0,0.066 -0.023,0.132 -0.069,0.198c-0.045,0.044 -0.114,0.088 -0.182,0.088l-1.184,-0c-0.114,-0 -0.228,-0.088 -0.251,-0.198c-0.273,-1.211 -0.979,-1.607 -2.846,-1.607c-2.096,0 -2.346,0.704 -2.346,1.232c-0,0.639 0.296,0.837 3.12,1.189c2.801,0.352 4.122,0.858 4.122,2.751c-0.023,1.937 -1.662,3.037 -4.555,3.037Z" style="fill:#fff;fill-rule:nonzero;"/></svg>