<?xml version="1.0" encoding="UTF-8" standalone="no"?><!DOCTYPE svg PUBLIC "-//W3C//DTD SVG 1.1//EN" "http://www.w3.org/Graphics/SVG/1.1/DTD/svg11.dtd"><svg width="100%" height="100%" viewBox="0 0 512 512" version="1.1" xmlns="http://www.w3.org/2000/svg" xmlns:xlink="http://www.w3.org/1999/xlink" xml:space="preserve" xmlns:serif="http://www.serif.com/" style="fill-rule:evenodd;clip-rule:evenodd;stroke-linejoin:round;stroke-miterlimit:2;"><path d="M380.12,223.618l-10.778,0l0,65.986l50.635,0l6.859,-10.78l-46.716,0l0,-55.206Zm-147.796,3.266l-39.528,62.72l13.068,0l11.923,-18.948l25.48,0l6.697,-10.777l-25.481,0l13.883,-21.724l32.504,51.449l13.064,0l-39.853,-62.882c-2.447,-4.084 -8.982,-4.084 -11.757,0.162Zm76.601,7.493l45.325,0l6.683,-10.77l-52.334,0.03c-18.213,-0 -30.2,14.762 -30.2,32.973c0,18.209 11.987,32.975 30.2,32.975l44.272,-0.052l6.931,-10.69l-50.876,-0c-12.28,-0 -19.456,-9.954 -19.456,-22.233c-0.001,-12.278 7.176,-22.233 19.455,-22.233Zm-231.301,-10.74l-46.714,-0c-18.21,-0 -30.196,14.762 -30.196,32.974c-0,18.208 11.986,32.974 30.196,32.974l46.714,-0c18.212,-0 30.197,-14.766 30.197,-32.974c-0,-18.212 -11.985,-32.974 -30.197,-32.974Zm0,55.206l-46.714,-0c-12.278,-0 -19.455,-9.954 -19.455,-22.232c0,-12.279 7.178,-22.234 19.455,-22.234l46.714,0c12.279,0 19.456,9.955 19.456,22.234c0,12.278 -7.177,22.232 -19.456,22.232Zm361.078,-17.005l57.082,-0l6.864,-10.781l-63.946,0c1.868,-9.552 8.612,-16.679 18.944,-16.679l45.326,0l6.689,-10.77l-52.339,0.03c-18.214,0 -30.195,14.763 -30.195,32.973c0,18.209 11.981,32.975 30.195,32.975l44.271,-0.052l6.931,-10.69l-50.877,0c-10.48,-0.001 -17.192,-7.248 -18.945,-17.006Zm-269.45,0.956c10.811,-0 19.576,-8.765 19.576,-19.577c-0,-10.811 -8.765,-19.575 -19.576,-19.575l-54.963,-0.023l0,65.987l12.087,-0l0,-55.222l42.876,0c4.88,0 8.835,3.956 8.835,8.834c0,4.88 -3.955,8.835 -8.835,8.835l-34.381,0l38.784,37.477l15.604,0l-27.766,-26.713l7.759,-0.023Z" style="fill:#fff;"/></svg>