<?xml version="1.0" encoding="UTF-8" standalone="no"?><!DOCTYPE svg PUBLIC "-//W3C//DTD SVG 1.1//EN" "http://www.w3.org/Graphics/SVG/1.1/DTD/svg11.dtd"><svg width="100%" height="100%" viewBox="0 0 800 800" version="1.1" xmlns="http://www.w3.org/2000/svg" xmlns:xlink="http://www.w3.org/1999/xlink" xml:space="preserve" xmlns:serif="http://www.serif.com/" style="fill-rule:evenodd;clip-rule:evenodd;stroke-linejoin:round;stroke-miterlimit:2;"><path d="M657.739,272.192c-8.522,-2.911 -17.105,-5.622 -25.749,-8.133c1.434,-5.833 2.756,-11.699 3.967,-17.599c19.499,-94.829 6.75,-171.226 -36.765,-196.375c-41.665,-24.132 -109.996,1.016 -178.926,61.147c-6.778,5.933 -13.416,12.044 -19.916,18.333c-4.333,-4.178 -8.777,-8.266 -13.333,-12.266c-72.247,-64.298 -144.66,-91.38 -188.125,-66.148c-41.665,24.183 -54.048,95.996 -36.499,185.876c1.756,8.889 3.728,17.738 5.917,26.549c-10.25,2.917 -20.15,6.033 -29.616,9.333c-84.596,29.582 -138.694,75.963 -138.694,124.061c0,49.698 58.064,99.53 146.277,129.745c7.155,2.433 14.377,4.694 21.666,6.783c-2.367,9.433 -4.461,18.971 -6.283,28.616c-16.666,88.329 -3.667,158.443 37.915,182.475c42.948,24.816 114.995,-0.683 185.226,-62.18c5.555,-4.867 11.11,-10.006 16.666,-15.416c7.022,6.788 14.243,13.377 21.665,19.765c67.998,58.631 135.145,82.314 176.66,58.215c42.915,-24.899 56.864,-100.23 38.748,-191.876c-1.389,-6.999 -2.989,-14.144 -4.8,-21.432c5.067,-1.5 10.028,-3.05 14.883,-4.65c91.663,-30.449 151.377,-79.68 151.377,-129.995c-0.033,-48.331 -55.864,-95.012 -142.261,-124.828Zm-214.991,-135.127c59.048,-51.515 114.245,-71.847 139.411,-57.315c26.782,15.483 37.199,77.914 20.366,159.794c-1.111,5.333 -2.311,10.649 -3.6,15.949c-35.238,-8.015 -70.971,-13.672 -106.962,-16.933c-20.607,-29.684 -43.197,-57.941 -67.614,-84.579c5.978,-5.8 12.099,-11.439 18.366,-16.916l0.033,-0Zm-206.541,301.004c7.233,13.999 14.794,27.826 22.682,41.481c8.033,13.933 16.405,27.66 25.116,41.182c-24.765,-2.692 -49.374,-6.659 -73.73,-11.883c7.066,-22.866 15.766,-46.615 25.932,-70.78Zm0,-80.547c-10,-23.649 -18.466,-46.915 -25.416,-69.38c22.833,-5.117 47.165,-9.3 72.531,-12.467c-8.5,13.267 -16.678,26.727 -24.533,40.382c-7.855,13.655 -15.399,27.477 -22.632,41.465l0.05,-0Zm18.166,40.282c10.533,-21.966 21.877,-43.51 34.032,-64.631c12.144,-21.11 25.071,-41.737 38.781,-61.881c23.799,-1.8 48.198,-2.75 72.847,-2.75c24.649,-0 49.198,0.95 72.981,2.767c13.566,20.099 26.415,40.654 38.548,61.664c12.133,21.01 23.627,42.454 34.482,64.331c-10.711,22.043 -22.177,43.676 -34.399,64.897c-12.121,21.11 -24.899,41.798 -38.331,62.064c-23.749,1.667 -48.332,2.583 -73.331,2.583c-24.999,-0 -49.114,-0.783 -72.43,-2.3c-13.811,-20.21 -26.843,-40.926 -39.098,-62.147c-12.255,-21.221 -23.633,-42.754 -34.132,-64.597l0.05,-0Zm286.854,81.513c8.056,-13.977 15.789,-28.138 23.199,-42.482c10.159,23.034 19.126,46.576 26.866,70.531c-24.643,5.549 -49.559,9.805 -74.647,12.749c8.466,-13.432 16.661,-27.032 24.582,-40.798Zm22.866,-121.778c-7.377,-14.055 -15.049,-27.944 -23.016,-41.665c-7.777,-13.533 -15.882,-26.899 -24.315,-40.099c25.515,3.234 49.998,7.533 72.947,12.783c-7.379,23.408 -15.928,46.431 -25.616,68.981Zm-163.726,-179.076c16.641,18.184 32.355,37.196 47.081,56.964c-31.499,-1.5 -63.02,-1.5 -94.563,-0c15.55,-20.566 31.466,-39.648 47.482,-56.964Zm-184.276,-97.696c26.766,-15.533 85.946,6.666 148.327,62.114c3.983,3.55 8,7.266 12,11.116c-24.543,26.634 -47.292,54.867 -68.098,84.513c-35.91,3.236 -71.573,8.803 -106.762,16.666c-2.033,-8.177 -3.866,-16.41 -5.5,-24.699c-15.082,-77.046 -5.099,-135.127 20.033,-149.71Zm-39.015,419.732c-6.666,-1.899 -13.249,-3.961 -19.749,-6.183c-38.999,-13.332 -71.214,-30.732 -93.33,-49.681c-19.799,-16.983 -29.832,-33.932 -29.832,-47.665c0,-29.182 43.432,-66.413 115.862,-91.662c9.1,-3.167 18.277,-6.061 27.532,-8.683c10.757,34.57 23.785,68.392 38.999,101.245c-15.395,33.308 -28.584,67.592 -39.482,102.629Zm185.209,156.111c-31.049,27.198 -62.148,46.481 -89.563,56.197c-24.632,8.717 -44.248,8.967 -56.098,2.117c-25.232,-14.583 -35.732,-70.897 -21.415,-146.427c1.699,-8.889 3.644,-17.777 5.833,-26.666c35.54,7.656 71.561,12.885 107.812,15.649c21.008,29.801 43.945,58.194 68.664,84.997c-4.967,4.883 -10.05,9.583 -15.233,14.133Zm39.032,-38.699c-16.2,-17.516 -32.366,-36.898 -48.132,-57.731c15.322,0.6 30.921,0.9 46.798,0.9c16.3,0 32.432,-0.35 48.332,-1.066c-14.673,20.085 -30.359,39.409 -46.998,57.897Zm207.524,47.648c-4.766,25.732 -14.349,42.898 -26.199,49.765c-25.215,14.633 -79.13,-4.383 -137.261,-54.531c-6.666,-5.733 -13.332,-11.883 -20.115,-18.333c24.237,-26.908 46.636,-55.415 67.047,-85.33c36.451,-3.088 72.647,-8.684 108.329,-16.749c1.633,6.6 3.077,13.066 4.333,19.399c8.016,40.499 9.166,77.13 3.866,105.779Zm28.999,-171.059c-4.366,1.45 -8.866,2.85 -13.433,4.216c-11.188,-34.733 -24.725,-68.665 -40.515,-101.562c15.198,-32.459 28.205,-65.899 38.932,-100.096c8.183,2.383 16.133,4.883 23.782,7.533c74.031,25.532 119.195,63.331 119.195,92.379c0,30.999 -48.781,71.231 -127.961,97.53Z" style="fill:#fff;fill-rule:nonzero;"/><path d="M399.983,468.567c0.078,0.001 0.156,0.001 0.234,0.001c39.313,0 71.663,-32.35 71.663,-71.664c0,-39.313 -32.35,-71.664 -71.663,-71.664c-39.314,0 -71.664,32.35 -71.664,71.664l0,0.15c0,39.2 32.231,71.468 71.43,71.513Z" style="fill:#fff;fill-rule:nonzero;"/></svg>