<?xml version="1.0" encoding="UTF-8" standalone="no"?><!DOCTYPE svg PUBLIC "-//W3C//DTD SVG 1.1//EN" "http://www.w3.org/Graphics/SVG/1.1/DTD/svg11.dtd"><svg width="100%" height="100%" viewBox="0 0 24 24" version="1.1" xmlns="http://www.w3.org/2000/svg" xmlns:xlink="http://www.w3.org/1999/xlink" xml:space="preserve" xmlns:serif="http://www.serif.com/" style="fill-rule:evenodd;clip-rule:evenodd;stroke-linejoin:round;stroke-miterlimit:2;"><path d="M21.791,17.247c-2.948,3.926 -9.242,2.601 -13.279,2.791c-0,0 -0.715,0.041 -1.434,0.159c-0,-0 0.272,-0.116 0.62,-0.237c2.834,-0.98 4.174,-1.177 5.897,-2.062c3.235,-1.657 6.456,-5.268 7.112,-9.02c-1.232,3.608 -4.979,6.714 -8.39,7.975c-2.334,0.862 -6.557,1.7 -6.558,1.7c-0.058,-0.03 -0.115,-0.06 -0.171,-0.091c-2.871,-1.397 -2.955,-7.617 2.261,-9.622c2.288,-0.879 4.474,-0.396 6.947,-0.985c2.636,-0.627 5.69,-2.603 6.93,-5.186c1.391,4.128 3.063,10.585 0.065,14.578Zm0.05,-15.856c-0.333,0.8 -0.76,1.557 -1.271,2.257c-2.245,-2.314 -5.334,-3.62 -8.557,-3.619c-6.595,-0 -11.958,5.363 -11.958,11.956c-0.001,3.323 1.387,6.5 3.827,8.756l0.262,0.232c-0.191,-0.192 -0.298,-0.452 -0.298,-0.722c-0,-0.561 0.461,-1.022 1.022,-1.022c0.56,-0 1.022,0.461 1.022,1.022c-0,0.56 -0.462,1.022 -1.022,1.022c-0.271,-0 -0.531,-0.108 -0.722,-0.299l0.178,0.158c2.149,1.817 4.874,2.813 7.689,2.81c6.301,0 11.477,-4.904 11.92,-11.094c0.327,-3.031 -0.568,-6.881 -2.092,-11.457" style="fill:#fff;fill-rule:nonzero;"/></svg>