<?xml version="1.0" encoding="UTF-8" standalone="no"?><!DOCTYPE svg PUBLIC "-//W3C//DTD SVG 1.1//EN" "http://www.w3.org/Graphics/SVG/1.1/DTD/svg11.dtd"><svg width="100%" height="100%" viewBox="0 0 32 32" version="1.1" xmlns="http://www.w3.org/2000/svg" xmlns:xlink="http://www.w3.org/1999/xlink" xml:space="preserve" xmlns:serif="http://www.serif.com/" style="fill-rule:evenodd;clip-rule:evenodd;stroke-linejoin:round;stroke-miterlimit:2;"><path d="M21.786,0.318l-0.161,3.615c-0.005,0.203 0.229,0.328 0.391,0.203l1.411,-1.068l1.198,0.932c0.156,0.104 0.365,0 0.375,-0.188l-0.135,-3.677l1.776,-0.135c0.922,-0.063 1.708,0.672 1.708,1.599l0,28.802c0,0.917 -0.766,1.646 -1.682,1.599l-21.469,-0.958c-0.833,-0.036 -1.505,-0.708 -1.531,-1.547l-1,-26.401c-0.052,-0.885 0.62,-1.646 1.505,-1.693l17.599,-1.109l0.015,0.026Zm-4.093,12.083c0,0.625 4.214,0.318 4.786,-0.109c0,-4.266 -2.292,-6.521 -6.479,-6.521c-4.198,-0 -6.531,2.297 -6.531,5.724c0,5.932 8,6.036 8,9.276c0,0.938 -0.427,1.469 -1.401,1.469c-1.281,0 -1.802,-0.651 -1.734,-2.88c0,-0.479 -4.865,-0.641 -5.026,0c-0.359,5.375 2.974,6.932 6.797,6.932c3.724,0 6.63,-1.984 6.63,-5.573c0,-6.359 -8.135,-6.188 -8.135,-9.333c0,-1.292 0.964,-1.464 1.505,-1.464c0.604,0 1.667,0.094 1.589,2.49l-0.001,-0.011Z" style="fill:#fff;fill-rule:nonzero;"/></svg>