<?xml version="1.0" encoding="UTF-8" standalone="no"?><!DOCTYPE svg PUBLIC "-//W3C//DTD SVG 1.1//EN" "http://www.w3.org/Graphics/SVG/1.1/DTD/svg11.dtd"><svg width="100%" height="100%" viewBox="0 0 24 24" version="1.1" xmlns="http://www.w3.org/2000/svg" xmlns:xlink="http://www.w3.org/1999/xlink" xml:space="preserve" xmlns:serif="http://www.serif.com/" style="fill-rule:evenodd;clip-rule:evenodd;stroke-linejoin:round;stroke-miterlimit:2;"><path d="M16.214,6.762l-0.075,0.391c-0.116,0.741 -0.074,0.953 0.244,1.228l0.307,0.254l-0.318,1.418c-0.19,0.846 -0.423,1.555 -0.571,1.788c-0.127,0.201 -0.275,0.497 -0.307,0.656c-0.053,0.19 -0.233,0.381 -0.508,0.55c-0.243,0.138 -0.72,0.508 -1.058,0.805c-0.27,0.243 -0.456,0.392 -0.557,0.456l-0.33,0.261c-0.106,0.17 -0.166,0.307 -0.189,0.411c-0.023,0.107 -0.01,0.178 0.024,0.23c0.033,0.05 0.09,0.085 0.168,0.107c0.092,0.022 0.187,0.029 0.282,0.023c0.214,-0.015 0.426,-0.052 0.632,-0.112c0.07,-0.019 0.125,-0.037 0.173,-0.053c0.074,-0.091 0.245,-0.263 0.548,-0.562c0.804,-0.793 1.111,-1.227 0.794,-1.11c-0.117,0.042 -0.064,-0.064 0.137,-0.276c0.424,-0.413 0.667,-1.037 1.175,-2.994c0.402,-1.545 0.402,-1.567 0.698,-1.567c0.139,-0 0.532,0.024 0.532,0.024l0,-1.928l-1.801,-0Zm3.839,3.165c-0.064,-0 -0.17,0.096 -0.233,0.202c-0.116,0.19 0.021,0.306 1.767,1.396c1.037,0.657 1.873,1.217 1.852,1.26c-0.021,0.031 -0.868,0.582 -1.883,1.217c-1.842,1.142 -1.852,1.153 -1.683,1.386c0.212,0.275 0,0.37 2.391,-1.122l1.736,-1.111l0,-0.836l-1.937,-1.196c-1.047,-0.656 -1.957,-1.185 -2.01,-1.196Zm-16.085,0.117c-0.053,0 -0.963,0.54 -2.01,1.185l-1.958,1.196l0,0.836l1.947,1.217c1.08,0.666 1.99,1.217 2.032,1.217c0.042,0 0.127,-0.096 0.212,-0.212c0.127,-0.201 0.02,-0.286 -1.768,-1.418c-1.703,-1.069 -1.883,-1.217 -1.713,-1.333c0.106,-0.074 0.91,-0.572 1.778,-1.111c1.979,-1.217 1.873,-1.133 1.714,-1.387c-0.063,-0.105 -0.17,-0.2 -0.233,-0.19l-0.001,0Zm8.684,0.023c-0.292,-0.002 -0.92,0.443 -2.8,1.978c-0.081,0.193 -0.088,0.326 -0.051,0.412c0.024,0.059 0.068,0.1 0.129,0.13c0.06,0.03 0.138,0.048 0.224,0.055c0.171,0.015 0.373,-0.012 0.536,-0.044l0.11,-0.025c0.038,-0.05 0.087,-0.091 0.144,-0.118c0.116,-0.064 0.603,-0.508 1.09,-0.984c0.857,-0.868 1.058,-1.26 0.709,-1.387c-0.029,-0.011 -0.059,-0.017 -0.09,-0.017l-0.001,0Zm2.196,0.603c-0.257,0.007 -0.72,0.305 -1.513,0.938c-0.398,0.323 -0.65,0.497 -0.785,0.533l-0.524,0.414c-0.197,0.36 -0.226,0.583 -0.174,0.706c0.013,0.03 0.032,0.058 0.056,0.081c0.023,0.023 0.051,0.041 0.082,0.053c0.076,0.03 0.158,0.045 0.24,0.045c0.196,-0.002 0.391,-0.031 0.58,-0.085c0.098,-0.026 0.195,-0.057 0.291,-0.092l0.029,-0.012l0.053,-0.028c0.1,-0.129 0.33,-0.372 0.618,-0.652c0.91,-0.878 1.375,-1.502 1.28,-1.735c-0.043,-0.113 -0.117,-0.17 -0.233,-0.166Zm-2.424,1.08c-0.074,0.008 -0.24,0.136 -0.539,0.398c-0.432,0.382 -0.903,0.602 -1.066,0.504c-0.038,0.009 -0.076,0.017 -0.114,0.024c-0.166,0.033 -0.373,0.06 -0.558,0.045c-0.087,-0.005 -0.173,-0.027 -0.252,-0.063c-0.075,-0.034 -0.135,-0.095 -0.168,-0.17c-0.037,-0.09 -0.037,-0.202 0.005,-0.345l-0.65,0.534l-1.471,1.217l0,1.973l4.82,-3.797c-0.001,-0.042 0.005,-0.083 0.016,-0.123c0.037,-0.134 0.035,-0.202 -0.023,-0.196l0,-0.001Zm2.074,0.639c-0.073,0 -0.195,0.103 -0.39,0.31c-0.265,0.283 -0.682,0.557 -0.903,0.613l-0.034,0.018c-0.036,0.015 -0.073,0.029 -0.11,0.042c-0.06,0.02 -0.138,0.044 -0.228,0.068c-0.18,0.049 -0.404,0.094 -0.604,0.089c-0.094,-0 -0.188,-0.018 -0.275,-0.054c-0.082,-0.034 -0.148,-0.098 -0.184,-0.18c-0.058,-0.139 -0.035,-0.334 0.092,-0.611l-4.252,3.349l0,1.205l1.868,0l3.962,-3.112c0.103,-0.114 0.258,-0.27 0.467,-0.465c0.56,-0.519 0.687,-0.698 0.687,-0.963c0,-0.206 -0.023,-0.31 -0.096,-0.31l0,0.001Zm0.943,1.95l-0.339,0.338c-0.19,0.18 -0.529,0.402 -0.761,0.497l-0.046,0.02l-0.003,0.005l-0.01,0.01c-0.009,0.007 -0.013,0.008 -0.02,0.011c-0.093,0.035 -0.187,0.066 -0.282,0.093c-0.212,0.062 -0.43,0.1 -0.65,0.115c-0.104,0.007 -0.209,-0.002 -0.31,-0.027c-0.088,-0.019 -0.166,-0.071 -0.218,-0.144c-0.048,-0.074 -0.062,-0.173 -0.035,-0.295c0.022,-0.087 0.053,-0.171 0.095,-0.25l-3.197,2.526l4.252,0l0.508,-0.582c0.698,-0.814 1.016,-1.396 1.016,-1.894l0,-0.423Z" style="fill:#fff;fill-rule:nonzero;"/></svg>