<?xml version="1.0" encoding="UTF-8" standalone="no"?><!DOCTYPE svg PUBLIC "-//W3C//DTD SVG 1.1//EN" "http://www.w3.org/Graphics/SVG/1.1/DTD/svg11.dtd"><svg width="100%" height="100%" viewBox="0 0 512 512" version="1.1" xmlns="http://www.w3.org/2000/svg" xmlns:xlink="http://www.w3.org/1999/xlink" xml:space="preserve" xmlns:serif="http://www.serif.com/" style="fill-rule:evenodd;clip-rule:evenodd;stroke-linejoin:round;stroke-miterlimit:2;"><path d="M467.688,171.103c-4.012,10.74 -14.095,10.741 -18.107,-0c-4.012,-10.741 1.03,-24.24 9.053,-24.24c8.024,-0.001 13.065,13.499 9.054,24.24Zm20.967,-30.375c-7.326,0 -11.93,12.928 -8.267,23.215c3.664,10.287 12.871,10.286 16.535,-0c3.663,-10.287 -0.941,-23.215 -8.268,-23.215Zm6.231,46.79c7.46,-7.616 11.999,-19.79 11.962,-34.739c-0.093,-37.921 -27.664,-54.216 -45.324,-34.117c-13.188,-8.585 -28.392,-1.963 -35.521,15.868c-11.334,9.893 -13.292,13.81 -18.629,48.285c-7.442,14.883 -11.072,32.198 -36.97,31.29c10.645,-13.736 -7.549,-31.702 -26.169,-24.242c-4.666,-12.258 -40.167,-33.879 -60.46,-41.668c-37.805,-14.509 -82.976,-12.298 -115.665,-0.954c-45.132,15.662 -73.758,55.74 -84.184,96.554l-58.359,-20.48c-24.847,-10.387 -33.27,-1.281 -17.73,14.347c42.408,34.693 57.04,36.975 66.222,47.802c-31.063,33.34 -30.149,43.658 -21.398,74.686c5.907,20.942 61.03,32.474 71.446,26.66c7.719,-4.308 15.674,-13.569 15.711,-15.67c0.21,-12.123 -25.942,-35.153 -11.054,-55.714c10.484,8.345 42.434,19.084 55.142,20.889c-6.344,10.506 -7.217,23.382 -5.236,33.562c2.052,19.696 30.88,26.926 55.434,30.966c23.278,-1.863 45.46,10.006 61.932,-15.622c2.793,-16.269 -0.058,-37.227 -9.229,-50.098c6.632,2.083 12.867,1.058 19.142,-1.356c0.7,24.37 13.087,45.73 33.036,45.561c27.963,2.328 43.02,-1.509 56.169,-23.163c7.561,-22.268 -11.197,-47.483 -38.423,-71.25c47.555,3.001 40.997,-36.983 71.988,-38.066c27.804,-0.415 38.146,-2.492 42.793,-10.737c-16.989,-2 -27.727,-9.257 -36.06,-24.055c-1.973,-3.838 3.42,-6.821 5.613,-3.159c6.89,12.233 15.92,20.539 37.579,21.316c18.779,0.39 22.266,-0.838 31.829,-16.389c4.989,-8.162 -2.778,-14.875 -15.587,-26.307Zm-156.454,59.432c-6.991,34.451 -26.694,81.022 -45.333,76.424c-37.872,-10.395 -74.747,-9.955 -99.251,1.139c-17.86,-0.273 -34.329,-11.616 -51.697,-15.694c-10.622,-4.782 -30.154,-32.973 -58.902,-32.457c-16.434,-16.108 -17.809,-19.271 0.383,-19.234c33.559,8.354 43.086,13.762 71.016,34.22c39.911,22.446 71.565,-1.174 96.536,-3.005c21.925,-1.998 36.116,15.679 50.536,9.156c11.654,-5.154 19.032,-23.21 26.838,-53.585c11.329,-47.812 25.195,-46.424 32.194,-39.078c-1.814,6.316 -15.172,8.385 -22.32,42.114Zm129.546,-71.388c-7.97,23.597 -28,23.597 -35.969,0.001c-7.969,-23.597 2.047,-53.254 17.984,-53.254c15.938,-0 25.954,29.656 17.985,53.253Zm3.411,10.301c10.56,-19.676 8.746,-46.631 -4.255,-62.18c3.273,-3.945 7.265,-6.381 11.757,-6.381c15.86,0 25.827,29.656 17.897,53.254c-5.417,16.118 -16.432,21.209 -25.399,15.307Z" style="fill:#fff;fill-rule:nonzero;"/></svg>