<?xml version="1.0" encoding="UTF-8" standalone="no"?><!DOCTYPE svg PUBLIC "-//W3C//DTD SVG 1.1//EN" "http://www.w3.org/Graphics/SVG/1.1/DTD/svg11.dtd"><svg width="100%" height="100%" viewBox="0 0 15 15" version="1.1" xmlns="http://www.w3.org/2000/svg" xmlns:xlink="http://www.w3.org/1999/xlink" xml:space="preserve" xmlns:serif="http://www.serif.com/" style="fill-rule:evenodd;clip-rule:evenodd;stroke-linejoin:round;stroke-miterlimit:2;"><path d="M0,0l15,0l0,15l-15,0l0,-15Zm10,6c-1.105,0 -2,0.895 -2,2c0,1.105 0.895,2 2,2l1,0c0.552,0 1,0.448 1,1c0,0.552 -0.448,1 -1,1l-1,0c-0.552,0 -1,-0.448 -1,-1l-1,0c0,1.105 0.895,2 2,2l1,0c1.105,0 2,-0.895 2,-2c0,-1.105 -0.895,-2 -2,-2l-1,0c-0.552,0 -1,-0.448 -1,-1c0,-0.552 0.448,-1 1,-1l1.167,0c0.46,0 0.833,0.373 0.833,0.833l0,0.167l1,0l0,-0.167c0,-1.012 -0.821,-1.833 -1.833,-1.833l-1.167,0Zm-7,0l5,0l0,1l-2,0l0,6l-1,0l0,-6l-2,0l0,-1Z" style="fill:#fff;"/></svg>